<?xml version="1.0" encoding="UTF-8" standalone="no"?>
<!-- Created with Inkscape (http://www.inkscape.org/) -->

<svg
   xmlns:dc="http://purl.org/dc/elements/1.1/"
   xmlns:cc="http://creativecommons.org/ns#"
   xmlns:rdf="http://www.w3.org/1999/02/22-rdf-syntax-ns#"
   xmlns:svg="http://www.w3.org/2000/svg"
   xmlns="http://www.w3.org/2000/svg"
   xmlns:sodipodi="http://sodipodi.sourceforge.net/DTD/sodipodi-0.dtd"
   xmlns:inkscape="http://www.inkscape.org/namespaces/inkscape"
   width="1401"
   height="519"
   id="svg2455"
   sodipodi:version="0.32"
   inkscape:version="0.48.4 r9939"
   version="1.0"
   sodipodi:docname="electric_grid.svg"
   inkscape:output_extension="org.inkscape.output.svg.inkscape"
   inkscape:export-filename="/home/ozi/Desktop/ee361/images/electric_grid.png"
   inkscape:export-xdpi="90"
   inkscape:export-ydpi="90">
  <defs
     id="defs2457">
    <inkscape:perspective
       sodipodi:type="inkscape:persp3d"
       inkscape:vp_x="0 : 526.18109 : 1"
       inkscape:vp_y="0 : 1000 : 0"
       inkscape:vp_z="744.09448 : 526.18109 : 1"
       inkscape:persp3d-origin="372.04724 : 350.78739 : 1"
       id="perspective2463" />
    <inkscape:perspective
       id="perspective2509"
       inkscape:persp3d-origin="372.04724 : 350.78739 : 1"
       inkscape:vp_z="744.09448 : 526.18109 : 1"
       inkscape:vp_y="0 : 1000 : 0"
       inkscape:vp_x="0 : 526.18109 : 1"
       sodipodi:type="inkscape:persp3d" />
    <inkscape:perspective
       id="perspective2561"
       inkscape:persp3d-origin="372.04724 : 350.78739 : 1"
       inkscape:vp_z="744.09448 : 526.18109 : 1"
       inkscape:vp_y="0 : 1000 : 0"
       inkscape:vp_x="0 : 526.18109 : 1"
       sodipodi:type="inkscape:persp3d" />
    <inkscape:perspective
       id="perspective3392"
       inkscape:persp3d-origin="372.04724 : 350.78739 : 1"
       inkscape:vp_z="744.09448 : 526.18109 : 1"
       inkscape:vp_y="0 : 1000 : 0"
       inkscape:vp_x="0 : 526.18109 : 1"
       sodipodi:type="inkscape:persp3d" />
  </defs>
  <sodipodi:namedview
     id="base"
     pagecolor="#ffffff"
     bordercolor="#666666"
     borderopacity="1.0"
     gridtolerance="10000"
     guidetolerance="10"
     objecttolerance="10"
     inkscape:pageopacity="0.0"
     inkscape:pageshadow="2"
     inkscape:zoom="1.1345972"
     inkscape:cx="707.30338"
     inkscape:cy="268.56652"
     inkscape:document-units="px"
     inkscape:current-layer="layer1"
     showgrid="false"
     units="in"
     inkscape:window-width="1853"
     inkscape:window-height="1056"
     inkscape:window-x="67"
     inkscape:window-y="24"
     inkscape:window-maximized="1" />
  <metadata
     id="metadata2460">
    <rdf:RDF>
      <cc:Work
         rdf:about="">
        <dc:format>image/svg+xml</dc:format>
        <dc:type
           rdf:resource="http://purl.org/dc/dcmitype/StillImage" />
        <dc:title></dc:title>
      </cc:Work>
    </rdf:RDF>
  </metadata>
  <g
     inkscape:label="Layer 1"
     inkscape:groupmode="layer"
     id="layer1"
     transform="translate(187.5,-288.86218)">
    <path
       style="fill:#000000"
       d="m 931.5,735.84861 c 0,-10.21567 0.3964,-15.64837 1.2405,-17 0.9874,-1.58107 0.9874,-2.39179 0,-3.97286 -0.8441,-1.35163 0.10844,-6.87378 -1.2405,-17 l 0,-15.01357 50,0 50,0 0,-13.5 0,-13.5 5.5,0 5.5,0 0,47.5 0,47.5 -55.5,0 -55.5,0 z m 44,0.0136 0,-12 7,0 7,0 0,12 0,12 20.5,0 20.5,0 0,-14.5 0,-14.5 -47.5,0 -47.5,0 0,14.5 0,14.5 20,0 20,0 z m -37,-3 0,-9 15.5,0 15.5,0 0,9 0,9 -15.5,0 -15.5,0 z m 28,0.5 0,-5.5 -12.5,0 -12.5,0 0,5.5 0,5.5 12.5,0 12.5,0 z m 29,0 0,-8.5 15.5,0 15.5,0 0,8.5 0,8.5 -15.5,0 -15.5,0 z m 28,0 0,-5.5 -12.5,0 -12.5,0 0,5.5 0,5.5 12.5,0 12.5,0 z m 17,-30 0,-44.5 -3,0 -3,0 0,44.5 0,44.5 3,0 3,0 z m -54,34 0,-9.5 -3.5,0 -3.5,0 0,9.5 0,9.5 3.5,0 3.5,0 z m 44,-36.5 0,-15 -47.5,0 -47.5,0 0,15 0,15 47.5,0 47.5,0 z m -85,1.80472 c 0,-5.36081 0.3619,-6.57306 2.6871,-9 3.292,-3.43608 3.7761,-3.45151 7.9685,-0.25383 3.1831,2.42787 3.3444,2.8619 3.3444,9 l 0,6.44911 -7,0 -7,0 z m 8,0.19528 c 0,-0.55 -0.675,-1 -1.5,-1 -0.825,0 -1.5,0.45 -1.5,1 0,0.55 0.675,1 1.5,1 0.825,0 1.5,-0.45 1.5,-1 z m 1.5,-8 c -2.2433,-2.47882 -2.70041,-2.48154 -5.6392,-0.0333 l -2.3608,1.96673 4.905,0.0333 c 4.8423,0.0329 4.8818,0.008 3.095,-1.96673 z m 46.5,7.67431 c 0,-5.29314 0.3673,-6.65631 2.25,-8.35123 3.8373,-3.45452 4.6169,-3.52637 8.2441,-0.75977 3.3622,2.56449 5.3362,3.21567 3.5059,9.05538 l 0,6.38131 -7,0 -7,0 z m 7.1875,0.64258 c -0.7219,-0.28887 -1.5844,-0.25335 -1.9167,0.0789 -0.3323,0.33229 0.2584,0.56864 1.3125,0.52522 1.165,-0.048 1.4019,-0.28494 0.6042,-0.60416 z m 2.0347,-8.53911 -2.2222,-2.22222 -2.2222,2.22222 -2.2222,2.22222 4.4444,0 4.4444,0 z M -142.65257,673.1932 c -12.49364,-0.30396 -15.76479,-0.67329 -16.20867,-1.83001 -0.62814,-1.6369 5.97606,-107.11813 6.94952,-110.99672 0.56356,-2.24542 1.13418,-2.50429 5.52013,-2.50429 3.68141,0 4.89159,0.3711 4.89159,1.5 0,0.825 0.3696,1.5 0.82133,1.5 0.45173,0 1.87778,17.47807 3.16901,38.84015 l 2.34768,38.84016 3.83099,3.21631 3.83099,3.21631 0,-25.55647 0,-25.55646 23.5,0 23.5,0 0,20.5 0,20.5 8.25585,0 8.25585,0 2.3445,-5.11053 c 3.64418,-7.94354 7.73427,-36.88947 5.21252,-36.88947 -0.64868,0 -1.06872,-2.55468 -1.06872,-6.5 0,-5.11111 0.32051,-6.5 1.5,-6.5 0.825,0 1.5,-0.45 1.5,-1 0,-0.625 6,-1 16,-1 13.55556,0 16,0.22917 16,1.5 0,0.825 0.45,1.5 1,1.5 0.5641,0 1,2.83333 1,6.5 0,4.65997 -0.36727,6.5 -1.29739,6.5 -0.96804,0 -1.21262,1.71357 -0.96346,6.75 0.40897,8.26654 2.19875,23.34051 2.90745,24.48721 0.56107,0.90782 1.15823,0.077 27.84342,-38.73721 9.83139,-14.3 19.18089,-27.6875 20.77665,-29.75 l 2.90139,-3.75 14.16597,0.009 14.16597,0.009 7.38922,14.49106 c 5.51506,10.81562 7.86119,14.49106 9.25,14.49106 1.02343,0 1.86078,0.45 1.86078,1 0,0.55 -0.43588,1 -0.96862,1 -0.53273,0 -0.70959,0.675 -0.39301,1.5 0.31659,0.825 1.42746,1.5 2.46862,1.5 2.12366,0 2.56675,1.58317 0.64301,2.29747 -0.69314,0.25737 0.02352,0.97011 1.60869,1.59991 2.42086,0.96181 2.6637,1.37072 1.58555,2.66981 -1.06992,1.28917 -0.92317,1.62556 0.91935,2.10739 1.59558,0.41725 2.03039,1.0841 1.59707,2.44938 -0.41657,1.31248 -0.10435,1.87604 1.03934,1.87604 1.1797,0 1.45807,0.55674 1,2 -0.60142,1.89491 -0.1797,2 8.02623,2 7.82001,0 8.71179,-0.1942 9.18402,-2 0.28766,-1.1 0.92053,-2 1.40638,-2 0.48585,0 0.88337,-0.85186 0.88337,-1.89301 0,-1.04116 0.675,-2.15203 1.5,-2.46862 0.825,-0.31658 1.5,-1.38148 1.5,-2.36644 0,-0.98496 0.88743,-2.34504 1.97206,-3.02241 1.15624,-0.72208 1.73251,-1.85581 1.39301,-2.74054 -0.37416,-0.97505 0.0134,-1.50898 1.09533,-1.50898 1.2193,0 1.50185,-0.54358 1.0396,-2 -0.43734,-1.37795 -0.1797,-2 0.82837,-2 0.80472,0 2.9238,-2.27625 4.70906,-5.05833 3.48251,-5.42702 5.74859,-5.49491 3.87351,-0.11603 -0.61342,1.75966 -0.83651,3.92593 -0.49576,4.81393 0.36606,0.95393 -0.10358,2.16329 -1.14781,2.95568 -1.07102,0.81273 -1.27486,1.35367 -0.51737,1.37295 1.86851,0.0475 1.51046,2.0318 -0.36663,2.0318 -1.15739,0 -1.45834,0.60531 -1.05941,2.13083 0.32298,1.23508 -0.0794,2.7675 -0.95725,3.64532 -1.23697,1.23697 -1.2719,1.67445 -0.1906,2.38746 1.04999,0.69237 0.95035,1.09279 -0.48156,1.93541 -1.34485,0.79138 -1.52968,1.39471 -0.72448,2.36492 0.80786,0.9734 0.63237,1.48364 -0.69455,2.01944 -1.59451,0.64385 -1.54614,0.80539 0.47448,1.58456 2.21765,0.85514 3.19581,3.93206 1.25,3.93206 -0.55,0 -1,1.575 -1,3.5 l 0,3.5 7.5,0 7.5,0 0,22.5 0,22.5 -7.32681,0 -7.3268,0 0.4403,3 0.44031,3 -23.6135,0 c -22.94683,0 -23.6135,-0.0565 -23.6135,-2 0,-1.1 0.45,-2 1,-2 0.55,0 1,-0.45 1,-1 0,-0.578 -3.17304,-1 -7.51913,-1 l -7.51913,0 0.26913,-22.25 0.26913,-22.25 7.25,-0.29381 7.25,-0.29381 0,-3.45619 c 0,-2.4055 -0.456,-3.45619 -1.5,-3.45619 -2.31279,0 -1.77439,-3.11548 0.64786,-3.74892 2.08309,-0.54474 2.09077,-0.60342 0.25487,-1.94586 -1.52654,-1.11624 -1.62873,-1.54751 -0.52788,-2.22787 1.09644,-0.67764 0.99708,-1.05988 -0.50487,-1.94222 -1.59637,-0.9378 -1.65461,-1.23966 -0.39801,-2.06304 1.25602,-0.823 1.20843,-1.06563 -0.32439,-1.65383 -1.3004,-0.49901 -1.63252,-1.34215 -1.20292,-3.0538 0.43128,-1.71833 0.17313,-2.36446 -0.94466,-2.36446 -1.1413,0 -1.37623,-0.64496 -0.91064,-2.5 0.39139,-1.55943 0.20328,-2.5 -0.5,-2.5 -0.68957,0 -0.8944,-0.92861 -0.52738,-2.39091 1.34408,-5.35527 -1.60863,-3.13384 -5.21451,3.92305 L 60,592.92402 45.09644,592.79441 30.19288,592.6648 6.34644,612.48985 c -13.11554,10.90377 -23.83656,20.51068 -23.82448,21.34868 0.03897,2.70336 3.94471,10.26342 6.54955,12.67751 2.42891,2.25103 3.15781,2.34614 17.98001,2.34614 l 15.44848,0 0,12 0,12 -39.75,0.002 c -21.8625,8.4e-4 -55.5,0.16101 -74.75,0.35592 -19.25,0.19491 -42.04365,0.18301 -50.65257,-0.0264 z m 5.80162,-12.08102 c -0.33516,-3.7125 -1.74893,-25.425 -3.14172,-48.25 -3.21818,-52.73967 -2.85827,-50 -6.5686,-50 -2.5368,0 -2.9401,0.37612 -2.94873,2.75 -0.006,1.5125 -1.34853,23.225 -2.98452,48.25 -1.63599,25.025 -2.98149,47.4125 -2.99,49.75 l -0.0155,4.25 9.62921,0 9.62921,0 z m 9.35095,2.81809 c 0,-3.2274 -0.53752,-4.31465 -3,-6.06809 l -3,-2.13619 0,6.0681 0,6.06809 3,0 c 2.82467,0 3,-0.22979 3,-3.93191 z m 41,-8.56809 0,-12.5 -17.5,0 -17.5,0 0,12.5 0,12.5 17.5,0 17.5,0 z m 58,5.5 0,-6 -26,0 -26,0 0,6 0,6 26,0 26,0 z m 45,0 0,-6 -19,0 -19,0 0,6 0,6 19,0 19,0 z m 101,-26.5 0,-25.5 -20,0 -20,0 0,25.5 0,25.5 20,0 20,0 z m -52.25324,-7.19565 c -0.1771,-5.94239 -0.32266,-1.35435 -0.32348,10.19565 -8.2e-4,11.55 0.14408,16.41196 0.322,10.80435 0.17792,-5.60761 0.17859,-15.05761 0.0015,-21 z m 2.99912,0.44565 c -0.17825,-5.6375 -0.32409,-1.025 -0.32409,10.25 0,11.275 0.14584,15.8875 0.32409,10.25 0.17825,-5.6375 0.17825,-14.8625 0,-20.5 z m 3,0 c -0.17825,-5.6375 -0.32409,-1.025 -0.32409,10.25 0,11.275 0.14584,15.8875 0.32409,10.25 0.17825,-5.6375 0.17825,-14.8625 0,-20.5 z m 3.00088,-0.44565 c -0.1771,-5.94239 -0.32266,-1.35435 -0.32348,10.19565 -8.2e-4,11.55 0.14408,16.41196 0.322,10.80435 0.17792,-5.60761 0.17859,-15.05761 0.0015,-21 z m 49,0 c -0.1771,-5.94239 -0.32266,-1.35435 -0.32348,10.19565 -8.2e-4,11.55 0.14408,16.41196 0.322,10.80435 0.17792,-5.60761 0.17859,-15.05761 0.001,-21 z m 3,0 c -0.1771,-5.94239 -0.32266,-1.35435 -0.32348,10.19565 -8.2e-4,11.55 0.14408,16.41196 0.322,10.80435 0.17792,-5.60761 0.17859,-15.05761 0.001,-21 z m 3,0 c -0.1771,-5.94239 -0.32266,-1.35435 -0.32348,10.19565 -8.2e-4,11.55 0.14408,16.41196 0.322,10.80435 0.17792,-5.60761 0.17859,-15.05761 0.001,-21 z m 3,0 c -0.1771,-5.94239 -0.32266,-1.35435 -0.32348,10.19565 -8.2e-4,11.55 0.14408,16.41196 0.322,10.80435 0.17792,-5.60761 0.17859,-15.05761 0.001,-21 z m -262.93637,19.80348 -3.31039,-2.97188 -0.32817,2.55377 c -0.23309,1.81388 0.63608,3.55236 3,6.0005 l 3.32817,3.44674 0.31039,-3.02862 c 0.24373,-2.3783 -0.40044,-3.66676 -3,-6.00051 z m 112.02485,-4.35783 c -1.72389,-3.4375 -3.29205,-6.4375 -3.4848,-6.66667 -0.19274,-0.22916 -0.35044,2.58334 -0.35044,6.25 l 0,6.66667 3.4848,0 3.4848,0 z m -9.83524,-0.75 c 0,-1.94872 -0.66667,-2 -26,-2 -25.33333,0 -26,0.0513 -26,2 0,1.94872 0.66667,2 26,2 25.33333,0 26,-0.0513 26,-2 z m -58,-5 c 0,-0.62857 -6.5,-1 -17.5,-1 -11,0 -17.5,0.37143 -17.5,1 0,0.62857 6.5,1 17.5,1 11,0 17.5,-0.37143 17.5,-1 z m 46.60106,-15.1728 c 14.31718,-14.07554 14.4516,-14.31392 12.78122,-22.6658 l -0.61772,-3.0886 -13.33842,12.62566 c -9.73876,9.21835 -13.51687,13.459 -13.99968,15.7136 -0.3637,1.69836 -1.4676,4.77544 -2.45312,6.83794 l -1.79184,3.75 3.01031,0 c 2.51661,0 5.20774,-2.16035 16.40925,-13.1728 z m 9.28038,7.22566 c 4.52951,-4.20583 6.1982,-6.40295 5.75,-7.57092 -0.34729,-0.90504 -0.63144,-2.99621 -0.63144,-4.64706 0,-1.65085 -0.38429,-2.85155 -0.85397,-2.66821 -0.46969,0.18333 -5.73747,4.94583 -11.70619,10.58333 l -10.85222,10.25 5.95619,-0.0109 c 5.88155,-0.0107 6.03616,-0.0851 12.33763,-5.93628 z m 6.14661,3.89473 c 2.30487,-4.30669 0.60688,-5.00816 -3.52805,-1.45749 l -4,3.43481 3.21482,0.0375 c 2.24368,0.0262 3.54662,-0.58244 4.31323,-2.01486 z M -86.5,629.86218 c 0,-0.62857 -6.5,-1 -17.5,-1 -11,0 -17.5,0.37143 -17.5,1 0,0.62857 6.5,1 17.5,1 11,0 17.5,-0.37143 17.5,-1 z m 94.66818,-21.85647 23.16817,-19.14353 14.06925,0 14.06926,0 3.50321,-6.95645 3.50321,-6.95644 -18.0139,-0.29356 -18.01389,-0.29355 -21.22674,23.89285 c -24.27588,27.32495 -28.93972,32.7571 -26.18674,30.50068 1.07799,-0.88355 12.38567,-10.22105 25.12817,-20.75 z M -86.5,621.86218 c 0,-1.92381 -0.66667,-2 -17.5,-2 -16.83333,0 -17.5,0.0762 -17.5,2 0,1.92381 0.66667,2 17.5,2 16.83333,0 17.5,-0.0762 17.5,-2 z m 0,-7.5 c 0,-1.27619 -2.611111,-1.5 -17.5,-1.5 -14.88889,0 -17.5,0.22381 -17.5,1.5 0,1.27619 2.61111,1.5 17.5,1.5 14.888889,0 17.5,-0.22381 17.5,-1.5 z m 47.66708,-12.7023 c 10.78747,-10.68178 13.33292,-13.73642 13.33292,-16 0,-2.76708 -0.06841,-2.79751 -6.25,-2.77992 l -6.25,0.0178 -6.69464,6.53489 -6.69464,6.53488 -0.61201,7.19734 c -0.33661,3.95853 -0.8201,8.20983 -1.07442,9.44733 -0.25432,1.2375 -0.15364,2.25 0.22374,2.25 0.37737,0 6.68594,-5.94103 14.01905,-13.2023 z m 47.86503,-6.5477 c 8.63966,-9.7625 17.22273,-19.2125 19.0735,-21 l 3.36502,-3.25 17.52726,0 17.52725,0 -3.52514,-7 -3.52514,-7 -14.30249,0 -14.30249,0 -10.12018,14.75 c -5.5661,8.1125 -14.22864,20.7125 -19.25009,28 -5.02145,7.2875 -8.91528,13.25 -8.65294,13.25 0.26233,0 7.54578,-7.9875 16.18544,-17.75 z m -95.53211,11.75 c 0,-0.62857 -6.5,-1 -17.5,-1 -11,0 -17.5,0.37143 -17.5,1 0,0.62857 6.5,1 17.5,1 11,0 17.5,-0.37143 17.5,-1 z m 171.5,-4 c -0.33992,-0.55 -1.94148,-1 -3.55902,-1 -1.61754,0 -2.94098,0.45 -2.94098,1 0,0.55 1.60156,1 3.55902,1 2.11803,0 3.30878,-0.40488 2.94098,-1 z m 30.5,0 c 0,-0.55 -1.54844,-1 -3.44098,-1 -1.89254,0 -3.7191,0.45 -4.05902,1 -0.37325,0.60393 0.98962,1 3.44098,1 2.23246,0 4.05902,-0.45 4.05902,-1 z m -210.800581,-2.74574 c -5.115319,-0.18186 -13.215319,-0.181 -17.999999,0.002 -4.78468,0.18291 -0.59942,0.3317 9.30058,0.33065 9.9,-10e-4 13.814738,-0.1507 8.699419,-0.33256 z M 83,598.86218 c -0.33992,-0.55 -1.71648,-1 -3.05902,-1 -1.34254,0 -2.44098,0.45 -2.44098,1 0,0.55 1.37656,1 3.05902,1 1.7847,0 2.80156,-0.41658 2.44098,-1 z m 33.5,0 c 0,-0.55 -1.32344,-1 -2.94098,-1 -1.61754,0 -3.2191,0.45 -3.55902,1 -0.3678,0.59512 0.82295,1 2.94098,1 1.95746,0 3.55902,-0.45 3.55902,-1 z m -36,-4 c 0,-0.55 -1.15156,-1 -2.55902,-1 -1.45136,0 -2.2915,0.43284 -1.94098,1 0.33992,0.55 1.49148,1 2.55902,1 1.06754,0 1.94098,-0.45 1.94098,-1 z m 37,-0.56955 c 0,-1.04234 -0.72946,-1.46221 -2.17167,-1.25 -3.2015,0.47108 -3.54438,2.81955 -0.41166,2.81955 1.6805,0 2.58333,-0.54853 2.58333,-1.56955 z m -164.5,-7.43045 3.9059,-4 -4.70295,0 -4.70295,0 0,4 c 0,2.2 0.35867,4 0.79705,4 0.43838,0 2.55471,-1.8 4.70295,-4 z m 124.5,3 c 0,-0.55 -0.675,-1 -1.5,-1 -0.825,0 -1.5,0.45 -1.5,1 0,0.55 0.675,1 1.5,1 0.825,0 1.5,-0.45 1.5,-1 z m 42,-0.5 c 0,-0.825 -0.62686,-1.5 -1.39301,-1.5 -0.76616,0 -1.65203,0.675 -1.96862,1.5 -0.39152,1.02029 0.054,1.5 1.39301,1.5 1.08322,0 1.96862,-0.67464 1.96862,-1.5 z m -45,-4 c 0,-0.825 -0.43588,-1.5 -0.96862,-1.5 -0.53273,0 -0.70959,0.675 -0.39301,1.5 0.31659,0.825 0.75246,1.5 0.96862,1.5 0.21615,0 0.39301,-0.675 0.39301,-1.5 z m 46.5,-0.5 c 0.33992,-0.55 0.16803,-1 -0.38197,-1 -0.55,0 -1.27811,0.45 -1.61803,1 -0.33992,0.55 -0.16803,1 0.38197,1 0.55,0 1.27811,-0.45 1.61803,-1 z m 819.1105,12.42723 c -1.0804,-2.81533 -0.6523,-5.42723 0.8895,-5.42723 0.8333,0 1.5,0.88889 1.5,2 0,1.97251 0.6667,2 48.5,2 l 48.5,0 0,-40 0,-40 -9.9725,0 -9.9726,0 -0.2774,14.25 -0.2775,14.25 -38.25,0.26188 -38.25,0.26189 0,2.98811 c 0,2.03624 -0.4953,2.98812 -1.5548,2.98812 -1.2309,0 0.0166,-1.20087 -1.25,-4.75 l 0.3048,-4.75 26.75,-0.26633 26.75,-0.26634 0,-26.48366 0,-26.48367 6,0 6,0 0,26.5 0,26.5 5.5,0 5.5,0 0,-12.41821 c 0,-6.83002 0.2731,-13.13002 0.607,-14 0.5082,-1.32446 2.62,-1.58179 12.9809,-1.58179 12.0035,0 12.3904,0.0674 12.9211,2.25 0.301,1.2375 1.5201,20.50963 0.2691,42.75 l -0.2781,40.5 -51.1395,0.25902 c -45.9841,0.23291 -51.2011,0.0986 -51.75,-1.33179 z M 939.5,579.86218 c 0,-4.66667 0.3333,-6 1.5,-6 1.1667,0 1.5,1.33333 1.5,6 0,4.66667 -0.3333,6 -1.5,6 -1.1667,0 -1.5,-1.33333 -1.5,-6 z m 0,-17.5 c 0,-5.11111 0.3205,-6.5 1.5,-6.5 1.1795,0 1.5,1.38889 1.5,6.5 0,5.11111 -0.3205,6.5 -1.5,6.5 -1.1795,0 -1.5,-1.38889 -1.5,-6.5 z m 11,-6 0,-4.5 5,0 5,0 0,4.5 0,4.5 -5,0 -5,0 z m 6,0 c 0,-0.825 -0.675,-1.5 -1.5,-1.5 -0.825,0 -1.5,0.675 -1.5,1.5 0,0.825 0.675,1.5 1.5,1.5 0.825,0 1.5,-0.675 1.5,-1.5 z m 10,0 0,-4.5 5,0 5,0 0,4.5 0,4.5 -5,0 -5,0 z m 7,0 c 0,-0.83333 -0.8889,-1.5 -2,-1.5 -1.1111,0 -2,0.66667 -2,1.5 0,0.83333 0.8889,1.5 2,1.5 1.1111,0 2,-0.66667 2,-1.5 z m 10,0 0,-4.5 5,0 5,0 0,4.5 0,4.5 -5,0 -5,0 z m 8,-0.11658 c 0,-0.80898 -1.0381,-1.38342 -2.5,-1.38342 -1.7712,0 -2.5,0.54258 -2.5,1.86133 0,1.44619 0.5576,1.75474 2.5,1.38342 1.375,-0.26285 2.5,-1.10044 2.5,-1.86133 z m 10,0.11658 0,-4.5 5,0 5,0 0,4.5 0,4.5 -5,0 -5,0 z m 7,0.5 c 0,-0.55 0,-1.3375 0,-1.75 0,-1.57848 -3.4895,-0.66253 -3.8096,1 -0.2335,1.21233 0.3,1.75 1.7363,1.75 1.1403,0 2.0733,-0.45 2.0733,-1 z m 9,-0.5 0,-4.5 5,0 5,0 0,4.5 0,4.5 -5,0 -5,0 z m 7,0.5 c 0,-0.55 0,-1.3375 0,-1.75 0,-1.57848 -3.4895,-0.66253 -3.8096,1 -0.2335,1.21233 0.3,1.75 1.7363,1.75 1.1403,0 2.0733,-0.45 2.0733,-1 z M 940.1105,428.28941 c -1.0804,-2.81533 -0.6523,-5.42723 0.8895,-5.42723 0.8333,0 1.5,0.88889 1.5,2 0,1.97251 0.6667,2 48.5,2 l 48.5,0 0,-40 0,-40 -9.9725,0 -9.9726,0 -0.2774,14.25 -0.2775,14.25 -38.25,0.26188 -38.25,0.26188 0,2.98812 c 0,2.03847 -0.495,2.98812 -1.5575,2.98812 -1.2139,0 -1.48967,-0.93754 -1.25,-4.25 l 0.3075,-4.25 26.75,-0.26633 26.75,-0.26634 0,-26.98366 0,-26.98367 6,0 6,0 0,27 0,27 5.5,0 5.5,0 0,-12.91821 c 0,-7.10502 0.2731,-13.63002 0.607,-14.5 0.5082,-1.32446 2.62,-1.58179 12.9809,-1.58179 12.0035,0 12.3904,0.0674 12.9211,2.25 0.301,1.2375 0.4221,20.475 0.2691,42.75 l -0.2781,40.5 -51.1395,0.25902 c -45.9841,0.23291 -51.2011,0.0987 -51.75,-1.33179 z M 939.5,411.36218 c 0,-5.11111 0.3205,-6.5 1.5,-6.5 1.1795,0 1.5,1.38889 1.5,6.5 0,5.11111 -0.3205,6.5 -1.5,6.5 -1.1795,0 -1.5,-1.38889 -1.5,-6.5 z m 0,-18 c 0,-5.11111 0.3205,-6.5 1.5,-6.5 1.1795,0 1.5,1.38889 1.5,6.5 0,5.11111 -0.3205,6.5 -1.5,6.5 -1.1795,0 -1.5,-1.38889 -1.5,-6.5 z m 11,-6 0,-4.5 5,0 5,0 0,4.5 0,4.5 -5,0 -5,0 z m 6,0 c 0,-0.825 -0.675,-1.5 -1.5,-1.5 -0.825,0 -1.5,0.675 -1.5,1.5 0,0.825 0.675,1.5 1.5,1.5 0.825,0 1.5,-0.675 1.5,-1.5 z m 10,0 0,-4.5 5,0 5,0 0,4.5 0,4.5 -5,0 -5,0 z m 7.3201,-0.38382 c -0.3337,-1.27609 -1.11,-1.72238 -2.4064,-1.38337 -2.7672,0.72364 -2.3837,3.26719 0.4927,3.26719 1.8646,0 2.2954,-0.42414 1.9137,-1.88382 z m 9.6799,0.38382 0,-4.5 5,0 5,0 0,4.5 0,4.5 -5,0 -5,0 z m 8,0 c 0,-0.93333 -0.9444,-1.5 -2.5,-1.5 -1.5556,0 -2.5,0.56667 -2.5,1.5 0,0.93333 0.9444,1.5 2.5,1.5 1.5556,0 2.5,-0.56667 2.5,-1.5 z m 10,0 0,-4.5 5,0 5,0 0,4.5 0,4.5 -5,0 -5,0 z m 7.3096,-0.13563 c -0.6452,-1.68137 -4.4593,-1.45294 -5.0366,0.30165 -0.4064,1.23501 2.4162,2.23688 4.4139,1.56666 0.6527,-0.21901 0.933,-1.05975 0.6227,-1.86831 z m 8.6904,0.13563 0,-4.5 5,0 5,0 0,4.5 0,4.5 -5,0 -5,0 z m 7.3299,-0.0828 c -0.7176,-1.86996 -5.3299,-1.8618 -5.3299,0.009 0,1.48376 2.6285,2.4966 4.6869,1.806 0.6527,-0.21901 0.01,-1.92418 0.643,-1.81544 10e-5,2e-5 0,4.4e-4 0,4.4e-4 z"
       id="path2515"
       inkscape:connector-curvature="0"
       sodipodi:nodetypes="sssscccccccccccsccccccccccccccccccccccccccccccccccccccccccccccccccccccccccccccccccccccccccccccccsssscccsssssscscscsssscccscssccscccccssssssscccccccccccsssssssssssssscccssssssssssssssssssssssssssssssssssssssscccccccccssssscccccsssssssssssssscccsssscccssssssssscccssscccsscccccccccccccccccccccccccccccsccccccssssssssssssssssssssssssssssssssscsscssssscccssssssssscssscssscssscscscsssscsssssscsccccsccssssssssssssscssccssssssscccccccsssssssssssssssssssssssssssssssssssssssscssccsssssssssssssssssssssssscscscccccccccssscccccccccccscscscscsssssssssscccccccscssscscccccccscssscscccccccscssscscccccccccssccscccccccccssccscssscccccccccssccccccccccccscscscscsssssssssscccccccscssscscccccccscssscccccccccsssscscccccccccccccccccccccccscccccccccccscac" />
    <g
       id="g3345">
      <path
         id="path2573"
         d="m 881.87878,770.228 c 0,-0.55 -0.66965,-1 -1.48812,-1 -1.2867,0 -3.25132,-5.16238 -1.75,-37.89258 l -0.26188,-37.89257 -9.04819,7.29248 c -7.47981,6.02843 -9.51652,7.20296 -11.75,6.776 -2.5308,-0.48379 -2.70181,-0.85184 -2.70181,-5.81474 0,-5.20186 0.091,-5.36503 5,-8.96859 l 5,-3.67034 0,-133.91483 0,-133.91483 -12.90607,0 -12.90608,0 -8.01676,-8.74383 c -4.40922,-4.80911 -8.34052,-8.42008 -8.73621,-8.02438 -0.3957,0.3957 -0.76792,2.19292 -0.82717,3.99383 -0.0592,1.80091 -0.78271,3.80474 -1.60771,4.45296 -1.31594,1.03396 -1.28526,1.26183 0.25,1.85699 2.41868,0.93763 2.19664,2.46443 -0.35841,2.46443 -1.74962,0 -2.00163,0.42542 -1.48095,2.5 0.39341,1.56745 0.20383,2.5 -0.50822,2.5 -0.65459,0 -0.90735,0.87315 -0.59667,2.06117 0.3157,1.20725 -0.005,2.26984 -0.77355,2.56485 -1.735,0.66578 -1.43857,5.56679 0.42434,7.01577 1.20525,0.93744 1.23808,1.41878 0.18346,2.68953 -0.70649,0.85125 -1.1395,2.81245 -0.96226,4.35821 0.31668,2.76176 0.446,2.87787 7.59127,3.10466 l 7.26902,0.2942 -0.26902,22.2058 -0.26901,22.20581 -7.07091,0.29019 -7.07091,0.2902 0.43441,2.9598 0.43441,2.95981 -23.6135,0 c -22.94683,0 -23.6135,-0.0565 -23.6135,-2 0,-1.1 0.45,-2 1,-2 0.55,0 1,-0.43029 1,-0.95619 0,-0.52591 -3.2625,-1.0884 -7.25,-1.25 l -7.25,-0.29381 0,-22 0,-22 7.14261,-0.29164 c 6.9726,-0.2847 7.15239,-0.35825 7.55333,-3.09002 0.52682,-3.58946 -0.005,-5.11834 -1.77927,-5.11834 -1.96556,0 -1.77339,-1.69038 0.33333,-2.93201 1.52742,-0.90022 1.55922,-1.16091 0.25,-2.04969 -1.33333,-0.90516 -1.33333,-1.13787 0,-2.09443 1.12946,-0.8103 1.19122,-1.20142 0.25,-1.58333 -0.6875,-0.27897 -1.25,-1.59471 -1.25,-2.92387 0,-1.32917 -0.48032,-2.41667 -1.06739,-2.41667 -0.5986,0 -0.79894,-0.84579 -0.45617,-1.92578 0.39824,-1.25473 -0.0139,-2.32032 -1.18261,-3.05804 -1.2073,-0.76205 -1.40349,-1.29789 -0.60001,-1.63883 0.65661,-0.27861 0.94695,-1.14991 0.64522,-1.93621 -0.30174,-0.78631 -0.85134,-1.24256 -1.22134,-1.01388 -0.834,0.51544 -0.84754,-8.03096 -0.014,-8.86434 0.33201,-0.33197 1.8009,1.20557 3.26419,3.41675 1.46329,2.21118 3.38424,4.02033 4.26878,4.02033 1.23203,0 1.34771,0.31394 0.49449,1.34201 -1.32112,1.59185 -0.50464,2.65799 2.03555,2.65799 1.00833,0 1.83333,0.45 1.83333,1 0,0.55 -0.45,1 -1,1 -1.84724,0 -1.022,2.18149 1.02804,2.71758 1.47466,0.38563 1.85949,1.06141 1.41034,2.47656 -0.45457,1.43222 -0.0584,2.09246 1.5,2.5 1.52682,0.39927 1.95157,1.07724 1.52227,2.42983 -0.40943,1.29002 -0.10583,1.87603 0.97196,1.87603 0.90072,0 1.56739,0.85067 1.56739,2 0,1.83526 0.66667,2 8.09362,2 7.25261,0 8.14796,-0.20782 8.61663,-2 0.28766,-1.1 0.92053,-2 1.40638,-2 0.48585,0 0.88337,-0.85185 0.88337,-1.89301 0,-1.04116 0.675,-2.15203 1.5,-2.46862 0.825,-0.31658 1.5,-1.38148 1.5,-2.36644 0,-0.98496 0.88743,-2.34504 1.97206,-3.02241 1.08463,-0.67736 1.73377,-1.85254 1.44253,-2.6115 -0.29124,-0.75896 0.20236,-1.66079 1.09689,-2.00405 1.09581,-0.4205 1.41882,-1.27822 0.99008,-2.62904 -0.48207,-1.51888 -0.18279,-2.00493 1.2345,-2.00493 1.08523,0 2.6987,-1.44861 3.84234,-3.44974 1.08434,-1.89736 6.41725,-8.19736 11.85092,-14 l 9.87941,-10.55026 51.34563,0 c 44.9739,0 51.34564,0.18614 51.34564,1.5 0,1.27778 -2.66667,1.5 -18,1.5 l -18,0 0,10.58333 c 0,8.01716 0.30309,10.48461 1.25,10.17616 0.6875,-0.22394 1.83706,-1.61144 2.55457,-3.08333 l 1.30456,-2.67616 15.44544,0 c 13.0626,0 15.44543,0.23141 15.44543,1.5 0,1.2636 -2.25994,1.5 -14.33948,1.5 -14.28237,0 -14.34398,0.01 -15.466,2.47241 -0.61957,1.35983 -2.26681,2.75861 -3.66051,3.10841 -2.4261,0.60891 -2.53401,0.95076 -2.53401,8.02759 0,4.06537 0.41786,7.39159 0.92857,7.39159 1.42633,0 4.07143,-2.96994 4.07143,-4.57143 0,-1.17665 2.73333,-1.42857 15.5,-1.42857 13.11111,0 15.5,0.23118 15.5,1.5 0,1.26093 -2.20133,1.5 -13.81194,1.5 l -13.81194,0 -2.218,3 c -1.2199,1.65 -3.10452,3 -4.18806,3 -1.9389,0 -3.9374,1.01244 -1.97006,62 l 0,62 18,0 c 15.33333,0 18,0.22222 18,1.5 0,1.27778 -2.66667,1.5 -18,1.5 l -18,0 0,10.58333 c 0,8.01716 0.30309,10.48461 1.25,10.17616 0.6875,-0.22395 1.28206,-2.0528 2.55457,-3.08333 l 1.30456,-2.67616 15.44544,0 c 13.0626,0 15.44543,0.23141 15.44543,1.5 0,1.26405 -2.27029,1.5 -14.43261,1.5 -13.39836,0 -14.47667,0.13882 -15.04745,1.93719 -0.33817,1.06545 -1.94349,2.5253 -3.56739,3.24411 -2.8844,1.27675 -2.95255,1.47688 -2.95255,8.6698 0,6.30314 0.22767,7.27551 1.58179,6.75589 0.86998,-0.33385 1.76998,-0.60699 2,-0.60699 0.23001,0 0.41821,-0.64286 0.41821,-1.42857 0,-0.78572 0.70714,-2.13572 1.57143,-3 1.28336,-1.28336 4.21645,-1.57143 16,-1.57143 13.7619,0 14.42857,0.0924 14.42857,2 0,1.90347 -0.66667,2 -13.81194,2 l -13.81194,0 -2.218,3 c -1.2199,1.65 -3.10452,3 -4.18806,3 -1.91566,0 -1.97006,0.81644 -1.97006,29.56809 l 0,29.5681 2.95539,-2.10443 c 2.51888,-1.7936 3.25739,-1.91583 5,-0.82754 1.58798,0.9917 2.04461,2.32573 2.04461,5.97318 0,4.69282 -0.006,4.70138 -8.50416,11.50946 -7.74253,6.20296 -8.45901,7.07062 -8,9.68814 0.27729,1.58125 0.50416,4.84375 0.50416,7.25 l 0,4.375 6,0 6,0 0,3.93738 c 0,3.59462 0.54406,4.40137 6.25,9.26757 3.4375,2.93161 7.15,6.10124 8.25,7.04364 1.1,0.94239 2.85625,2.32871 3.90278,3.08072 1.04652,0.752 1.6108,1.8397 1.25395,2.4171 -0.4202,0.67989 -3.86952,-0.14758 -9.78886,-2.34829 -5.02701,-1.86897 -9.30379,-3.39812 -9.50395,-3.39812 -0.20016,0 -1.43108,3.73137 -0.36392,8 l 0,8 -9,0 -9,0 0,20.57143 c 0,16.49524 -0.28307,20.8545 -1.42857,22 -1.62258,1.62257 -10.57143,1.98537 -10.57143,0.42857 z m 6,-44.5 c 0,-35.91009 -0.44681,-42.98994 -2.39301,-37.91821 -0.33385,0.86998 -0.60699,18.64498 -0.60699,39.5 0,33.03841 0.19304,37.91821 1.5,37.91821 1.30802,0 1.5,-5.05556 1.5,-39.5 z m 17,-6.5 c 0,-0.55 -2.025,-1 -4.5,-1 -2.475,0 -4.5,0.45 -4.5,1 0,0.55 2.025,1 4.5,1 2.475,0 4.5,-0.45 4.5,-1 z m 0,-10 c 0,-2.88889 -0.16667,-3 -4.5,-3 -4.33333,0 -4.5,0.11111 -4.5,3 0,2.88889 0.16667,3 4.5,3 4.33333,0 4.5,-0.11111 4.5,-3 z m 12.5,0.39492 c -3.86457,-2.97856 -5.5,-3.57726 -5.5,-2.01344 0,0.79852 1.2375,1.90383 2.75,2.45624 4.02261,1.46918 5.02195,1.30827 2.75,-0.4428 z m -2.63922,-5.30884 c -1.29843,-1.05266 -2.55293,-1.72301 -2.78778,-1.48967 -0.51379,0.51049 3.0675,3.3267 4.28778,3.37179 0.47344,0.0175 -0.20156,-0.82946 -1.5,-1.88212 z m -46.19353,-9.63331 c 3.75801,-3.05098 7.50775,-6.09891 8.33275,-6.77317 0.825,-0.67426 4.5375,-3.65876 8.25,-6.63221 3.7125,-2.97345 6.75,-5.79789 6.75,-6.27652 0,-1.25986 -1.09417,-0.4668 -16.78983,12.16941 -12.27918,9.88568 -15.63142,13.05972 -13.79292,13.05972 0.22948,0 3.49198,-2.49626 7.25,-5.54723 z m 36.33275,4.54723 c 0,-0.55 -2.025,-1 -4.5,-1 -2.475,0 -4.5,0.45 -4.5,1 0,0.55 2.025,1 4.5,1 2.475,0 4.5,-0.45 4.5,-1 z m -22.75005,-24.80111 c 0.98385,-1.18542 1.29995,-30.22176 1.48437,-136.35252 l 0.23432,-134.84637 -28.53401,0 c -24.0678,0 -28.40884,0.21742 -27.73432,1.38905 0.43983,0.76398 3.43524,4.20672 6.65647,7.65052 l 5.85679,6.26146 18.28309,-0.57611 18.2831,-0.57611 0.56904,2.84517 c 0.33301,1.66502 1.41565,3.11387 2.61011,3.49298 2.4573,0.77991 2.73391,3.51304 0.35554,3.51304 -2.04555,0 -6.31445,-3.83613 -6.31445,-5.67431 0,-0.7474 -1.09054,-1.32569 -2.5,-1.32569 l -2.5,0 0,83 0,83 3.875,0 c 3.48183,0 3.93425,0.29623 4.45891,2.91957 0.34662,1.73309 1.41339,3.18284 2.625,3.56739 2.4573,0.77992 2.73391,3.51304 0.35554,3.51304 -2.04555,0 -6.31445,-3.83613 -6.31445,-5.67431 0,-0.7474 -1.09054,-1.32569 -2.5,-1.32569 l -2.5,0 0,48.06635 0,48.06635 5.99995,-4.71383 c 3.29997,-2.5926 6.56247,-5.3916 7.25,-6.21998 z m 6.75005,-6.13987 c 0,-1.06754 -0.45,-2.2191 -1,-2.55902 -0.56716,-0.35052 -1,0.48962 -1,1.94098 0,1.40746 0.45,2.55902 1,2.55902 0.55,0 1,-0.87344 1,-1.94098 z m 15.59051,-2.68049 c 7.63119,-6.51954 6.75039,-7.51172 -1.09051,-1.22842 -3.575,2.86483 -6.5,5.35303 -6.5,5.52933 0,1.3176 3.01089,-0.38843 7.59051,-4.30091 z m -5.48441,-4.46256 3.8939,-3.08403 -0.006,-30.66597 -0.006,-30.66597 -3.08951,-1.75849 c -1.69924,-0.96718 -3.32388,-2.65468 -3.61031,-3.75 -0.73119,-2.79608 -3.74381,-2.48026 -5.11836,0.53655 -0.63353,1.39044 -1.83076,2.78859 -2.66052,3.10699 -1.29892,0.49845 -1.50865,4.7899 -1.50865,30.87007 l 0,30.29115 3.75,3.9686 c 2.0625,2.18272 3.91024,4.02856 4.1061,4.10186 0.19585,0.0733 2.10835,-1.25454 4.25,-2.95076 z m 3.8939,-75.17186 c 0,-7.0079 -0.097,-7.29881 -2.83735,-8.51182 -1.56054,-0.69076 -3.43658,-2.37561 -4.16898,-3.74411 -1.06297,-1.98619 -2.10454,-2.48818 -5.16265,-2.48818 l -3.83102,0 0,10 c 0,5.5 0.24841,10 0.55202,10 0.30361,0 1.02263,-1.35 1.59782,-3 0.94842,-2.72064 1.45575,-3 5.44799,-3 3.85124,0 4.40217,0.27173 4.40217,2.17126 0,1.82508 2.51055,5.82874 3.65499,5.82874 0.18975,0 0.34501,-3.26515 0.34501,-7.25589 z m -0.006,-84.49411 -0.006,-73.75 -3.08951,-1.75849 c -1.69924,-0.96718 -3.32388,-2.65468 -3.61031,-3.75 -0.71322,-2.72736 -4.13203,-2.5307 -5.20811,0.29959 -0.47909,1.2601 -1.59295,2.8902 -2.47524,3.62244 -1.44443,1.19877 -1.60418,8.33977 -1.60418,71.7089 l 0,70.37756 5.5,0 c 4.22222,0 5.5,0.34848 5.5,1.5 0,1.38899 3.36355,5.5 4.5,5.5 0.275,0 0.49716,-33.1875 0.49368,-73.75 z m -88.99368,-37.75 0,-25.5 -20,0 -20,0 0,25.5 0,25.5 20,0 20,0 z m -49.25412,-6.75 c -0.17825,-5.6375 -0.32409,-1.025 -0.32409,10.25 0,11.275 0.14584,15.8875 0.32409,10.25 0.17825,-5.6375 0.17825,-14.8625 0,-20.5 z m 3,0 c -0.17825,-5.6375 -0.32409,-1.025 -0.32409,10.25 0,11.275 0.14584,15.8875 0.32409,10.25 0.17825,-5.6375 0.17825,-14.8625 0,-20.5 z m 3.00088,-0.44565 c -0.1771,-5.94239 -0.32267,-1.35435 -0.32348,10.19565 -8.2e-4,11.55 0.14408,16.41196 0.322,10.80435 0.17792,-5.60761 0.17858,-15.05761 0.001,-21 z m 49,0 c -0.1771,-5.94239 -0.32267,-1.35435 -0.32348,10.19565 -8.2e-4,11.55 0.14408,16.41196 0.322,10.80435 0.17792,-5.60761 0.17858,-15.05761 0.001,-21 z m 9,0 c -0.1771,-5.94239 -0.32267,-1.35435 -0.32348,10.19565 -8.2e-4,11.55 0.14408,16.41196 0.322,10.80435 0.17792,-5.60761 0.17858,-15.05761 0.001,-21 z m -67.0019,-0.10754 c -0.17945,-5.33325 -0.32556,-0.69681 -0.32467,10.30319 8.8e-4,11 0.14771,15.36356 0.32628,9.69681 0.17857,-5.66676 0.17784,-14.66676 -0.002,-20 z m 61.00102,-0.44681 c -0.17825,-5.6375 -0.32409,-1.025 -0.32409,10.25 0,11.275 0.14584,15.8875 0.32409,10.25 0.17825,-5.6375 0.17825,-14.8625 0,-20.5 z m 3,0 c -0.17825,-5.6375 -0.32409,-1.025 -0.32409,10.25 0,11.275 0.14584,15.8875 0.32409,10.25 0.17825,-5.6375 0.17825,-14.8625 0,-20.5 z m -44.74588,-23.75 c 0,-0.55 -1.37656,-1 -3.05902,-1 -1.7847,0 -2.80156,0.41658 -2.44098,1 0.33992,0.55 1.71648,1 3.05902,1 1.34254,0 2.44098,-0.45 2.44098,-1 z m 30.5,0 c 0.3678,-0.59512 -0.82295,-1 -2.94098,-1 -1.95746,0 -3.55902,0.45 -3.55902,1 0,0.55 1.32344,1 2.94098,1 1.61754,0 3.2191,-0.45 3.55902,-1 z m -32,-4 c -0.33992,-0.55 -1.71648,-1 -3.05902,-1 -1.34254,0 -2.44098,0.45 -2.44098,1 0,0.55 1.37656,1 3.05902,1 1.7847,0 2.80156,-0.41658 2.44098,-1 z m 33.5,0 c 0,-0.55 -1.32344,-1 -2.94098,-1 -1.61754,0 -3.2191,0.45 -3.55902,1 -0.3678,0.59512 0.82295,1 2.94098,1 1.95746,0 3.55902,-0.45 3.55902,-1 z m -36.245,-4.25 c -0.47667,-1.44743 -4.755,-2.33478 -4.755,-0.98622 0,1.42806 1.17454,2.23622 3.25,2.23622 1.08622,0 1.7383,-0.5416 1.505,-1.25 z m 37.63189,-0.31583 c 0.46791,-1.21937 0.0108,-1.49595 -2.06589,-1.25 -1.46672,0.17371 -2.85147,0.87833 -3.07721,1.56583 -0.61308,1.86707 4.42414,1.55774 5.1431,-0.31583 z m 88.61311,-6.83634 c 0,-7.3241 -0.0316,-7.4132 -2.99731,-8.44705 -1.64852,-0.57468 -3.52075,-2.1937 -4.16051,-3.59782 -0.95319,-2.09202 -1.85643,-2.55296 -5.0027,-2.55296 l -3.83948,0 0,10 c 0,5.5 0.24841,10 0.55202,10 0.30361,0 1.02263,-1.35 1.59782,-3 0.94842,-2.72064 1.45575,-3 5.44799,-3 3.99445,0 4.40217,0.22493 4.40217,2.42857 0,2.08119 2.23733,5.57143 3.57143,5.57143 0.23571,0 0.42857,-3.33098 0.42857,-7.40217 z m -129.22917,2.21467 c -0.61807,-1.85422 -2.77083,-2.16176 -2.77083,-0.39583 0,0.87083 0.7125,1.58333 1.58333,1.58333 0.87084,0 1.40521,-0.53438 1.1875,-1.1875 z m 42.22917,-0.38582 c 0,-0.93124 -0.68037,-1.44138 -1.66713,-1.25 -2.50877,0.48655 -2.85325,2.82332 -0.4162,2.82332 1.22833,0 2.08333,-0.64569 2.08333,-1.57332 z m -45,-4.42668 c 0,-0.55 -0.47656,-1 -1.05902,-1 -0.58246,0 -0.7809,0.45 -0.44098,1 0.33992,0.55 0.81648,1 1.05902,1 0.24254,0 0.44098,-0.45 0.44098,-1 z m 46,-0.5 c 0,-0.825 -0.17686,-1.5 -0.39301,-1.5 -0.21616,0 -0.65203,0.675 -0.96862,1.5 -0.31658,0.825 -0.13972,1.5 0.39302,1.5 0.53273,0 0.96861,-0.675 0.96861,-1.5 z m 86,-18 0,-10.5 -31.55277,0 -31.55277,0 -5.69723,6.12553 c -3.13348,3.36904 -6.08911,6.80126 -6.56808,7.62715 -0.76958,1.327 3.27165,1.45196 34.75,1.07455 25.0513,-0.30036 35.62085,-0.10739 35.62085,0.65033 0,1.53143 2.93174,5.52244 4.0567,5.52244 0.53117,0 0.9433,-4.58745 0.9433,-10.5 z"
         style="fill:#038f2e;fill-opacity:1"
         inkscape:connector-curvature="0"
         sodipodi:nodetypes="ssscsssscccccssssssssssscsscccccccssssscccsssssscsssscscsssssssssssssssssssssssssscssscscscssssssssssscssscssscssscssssssssssssscssscsssssscccsssssssscccsssssssssssssssssssssssssssssssssssssssscssscccssssscccsssssscccsssssssssssscccssscscscssssscsssssssscssssscsssscccccccccsssssssssssssssssssssssssssssssssssssssssssssssssssscsscsscssssscsssssssssssssssssssssssssscccssssss" />
    </g>
    <path
       style="fill:#315cc4;fill-opacity:1"
       d="m 191.36724,662.45244 c -0.93067,-1.12139 -0.6263,-4.87943 1.3948,-17.22179 12.18324,-74.39995 15.59758,-98.80154 15.59758,-111.47284 l 0,-12.85774 -19.20301,0.2716 -19.20301,0.27159 -10.33145,12.5 c -5.6823,6.875 -15.13896,18.4625 -21.01479,25.75 -5.87583,7.2875 -11.03532,13.25 -11.46553,13.25 -0.43022,0 -0.78221,-0.67367 -0.78221,-1.49705 0,-0.82337 10.01015,-21.52337 22.24477,-46 l 22.24477,-44.50295 19.50523,-0.0652 19.50523,-0.0652 5.98691,-7.39792 c 3.47236,-4.29074 6.35859,-7.02623 6.87185,-6.51297 0.48672,0.48672 1.39778,0.68816 2.02457,0.44764 0.6268,-0.24053 4.27239,2.71964 8.10133,6.57814 l 6.9617,7.01546 111.02682,-0.0754 223.02682,-0.0754 6.23808,-7.3341 c 4.6025,-5.41115 6.72755,-7.2061 8.1049,-6.84591 1.02676,0.2685 4.95756,3.60277 8.73511,7.4095 l 6.86827,6.92131 46.76731,0 46.7673,0 0.25952,-48.75 0.25951,-48.75 23.86597,-0.26837 23.86596,-0.26837 9.38404,9.20259 c 5.16122,5.06142 9.38403,9.61121 9.38403,10.11064 0,1.43745 -2.92211,4.69436 -11.19782,12.4808 -6.93664,6.52653 -8.09759,7.24271 -11.74058,7.24271 l -4.04275,0 -0.25943,49.25 -0.25942,49.25 -65.75,0.25719 -65.75,0.25719 0,13.79527 c 0,12.42207 0.84741,19.16527 8.51315,67.74281 4.68224,29.67115 8.76799,55.18504 9.07946,56.69754 0.49018,2.38036 0.2505,2.75 -1.78313,2.75 -1.60866,0 -7.07264,-4.24921 -17.32946,-13.47672 -8.23901,-7.4122 -15.38896,-13.4872 -15.88879,-13.5 -0.49982,-0.0128 -7.62312,6.56234 -15.82956,14.61144 -19.18787,18.81998 -18.86212,18.97811 -14.74172,-7.15652 1.64566,-10.43801 3.65992,-23.0282 4.47612,-27.9782 8.44404,-51.21013 8.58529,-67.03891 10.50393,-79.99475 l 0,-13.50525 -164.33948,0 c 8.0577,-0.0604 35.1524,1.02828 -134.16052,0 l -33.5,0 0.0145,11.25 c 0.0101,7.85429 1.04136,17.73957 3.41645,32.75 9.55428,60.38238 14.62818,92.69902 14.83706,94.5 0.16611,1.43214 -0.44571,2.09582 -2.15479,2.33747 -1.81414,0.25651 -3.97336,-1.19997 -9,-6.07083 -3.63728,-3.52457 -10.45772,-9.83478 -15.15652,-14.02269 l -8.54328,-7.61439 -9.95672,9.90009 c -16.49317,16.39936 -21.05735,20.15648 -22.4491,18.47953 z m 11.18018,-13.92498 2.68781,-2.95345 -3.1307,-4.06538 c -1.72188,-2.23595 -3.22328,-4.20726 -3.33644,-4.38067 -0.11315,-0.17342 -0.73478,2.97658 -1.38139,7 -0.64661,4.02341 -1.42703,8.2153 -1.73427,9.3153 -0.55723,1.99505 -0.55272,1.9951 1.82429,0.0188 1.31059,-1.08964 3.59241,-3.31022 5.0707,-4.93463 z m 49.76459,-3.27928 c -0.69911,-4.84271 -1.40324,-8.97127 -1.56475,-9.17459 -0.1615,-0.20332 -2.57911,1.30802 -5.37245,3.35852 l -5.07881,3.72819 6.26983,5.82012 c 3.44841,3.20107 6.43801,5.65195 6.64356,5.4464 0.20555,-0.20554 -0.19827,-4.33593 -0.89738,-9.17864 z m 313.98062,4.0325 3.4348,-3.16257 -3.4339,-4.4909 c -1.88865,-2.47 -3.53232,-4.39843 -3.65259,-4.28541 -0.12028,0.11302 -0.84608,4.12348 -1.61289,8.91213 -1.55616,9.71799 -1.831,9.55996 5.26458,3.02675 z m 50.06103,-4.8794 c -0.66034,-4.65191 -1.37809,-8.45802 -1.59501,-8.45802 -0.21692,0 -2.62678,1.6038 -5.35523,3.564 l -4.96084,3.56401 6.20852,5.85149 c 3.41469,3.21832 6.36482,5.42063 6.55585,4.89401 0.19103,-0.52661 -0.19295,-4.76359 -0.85329,-9.41549 z M 210.28801,634.14702 c -3.94308,-0.16293 -7.3943,-0.0712 -7.66937,0.20389 -0.27507,0.27506 0.96715,2.35271 2.76049,4.61698 l 3.26061,4.11686 4.40876,-4.32074 4.40875,-4.32075 z m 364,0 c -3.94308,-0.16293 -7.38809,-0.0774 -7.65558,0.19009 -0.26748,0.26749 1.02421,2.29164 2.87043,4.49813 l 3.35676,4.01179 4.29881,-4.20188 4.29882,-4.20189 z m -332.89062,2.83688 3.46223,-2.95936 -7.5,-0.0383 -7.5,-0.0383 3.5,2.99531 c 1.925,1.64742 3.742,2.99636 4.03777,2.99765 0.29578,10e-4 2.09578,-1.32936 4,-2.957 z m 363.98367,0.32647 c 2.18821,-1.44808 3.97856,-2.79808 3.97856,-3 0,-0.20191 -3.23419,-0.36711 -7.18709,-0.36711 l -7.18709,0 2.87418,3 c 1.5808,1.65 3.02464,3 3.20853,3 0.18389,0 2.1247,-1.1848 4.31291,-2.63289 z m -359.02144,-8.90821 c 0,-0.80412 -21.32824,-24.9589 -22.03826,-24.9589 -0.33492,0 -5.06491,5.175 -10.51108,11.5 -5.44617,6.325 -10.25055,11.65 -10.6764,11.83333 -0.42584,0.18334 -0.77426,0.74584 -0.77426,1.25 0,0.52778 9.33333,0.91667 22,0.91667 12.1,0 22,-0.24349 22,-0.5411 z m 353.91718,-12.2089 c -6.12044,-7.0125 -11.41813,-12.8326 -11.77263,-12.93357 -0.60399,-0.17201 -4.66075,4.43164 -17.12491,19.43357 l -5.19274,6.25 22.60919,0 22.60918,0 z m -383.60886,-11.40246 4.76797,-5.65247 -6.65258,-7.59753 c -3.65892,-4.17865 -6.96679,-7.59754 -7.35082,-7.59754 -0.38403,0 -1.94,7.9875 -3.45772,17.75 -1.51771,9.7625 -3.02497,18.85882 -3.34946,20.21406 -0.57965,2.42094 0.84037,0.90586 16.04261,-17.11652 z m 357.77305,7.65246 c 4.65911,-5.5 9.07009,-10.7793 9.80219,-11.73178 1.17515,-1.5289 0.49698,-2.6768 -5.78895,-9.79865 -4.06832,-4.60932 -7.29318,-7.51025 -7.52399,-6.76822 -0.22218,0.71426 -1.59462,9.17365 -3.04988,18.79865 -1.45525,9.625 -2.89333,18.4 -3.19572,19.5 -0.64978,2.36366 -1.16018,2.8868 9.75635,-10 z m 35.34896,-9.06764 c -1.77775,-11.3122 -3.38933,-20.71023 -3.5813,-20.88451 -0.76961,-0.69872 -13.95072,15.66977 -13.66073,16.96409 0.22444,1.00175 19.76816,24.46774 20.393,24.48572 0.0447,10e-4 -1.37322,-9.2531 -3.15097,-20.5653 z M 245.3752,601.87917 c -1.68626,-10.62577 -3.20635,-19.46001 -3.37798,-19.63164 -0.37251,-0.37252 -13.46747,15.15578 -13.86309,16.43917 -0.37257,1.20863 19.60005,24.63287 19.99441,23.4498 0.17192,-0.51576 -1.06709,-9.63155 -2.75334,-20.25733 z m -14.00021,-14.18591 6.30755,-7.25 -6.66146,-0.29569 c -3.6638,-0.16263 -9.62558,-0.16263 -13.24839,0 l -6.58693,0.29569 2.65559,3 c 1.46058,1.65 4.25391,4.9125 6.2074,7.25 1.95349,2.3375 3.88184,4.25 4.28524,4.25 0.40339,0 3.57184,-3.2625 7.041,-7.25 z m 363.83904,0.33511 c 3.38007,-3.80319 6.14559,-7.17819 6.14559,-7.5 0,-0.32181 -5.88117,-0.58511 -13.06926,-0.58511 l -13.06927,0 6.20379,7.5 c 3.41208,4.125 6.52773,7.5 6.92367,7.5 0.39594,0 3.4854,-3.1117 6.86548,-6.91489 z M 231.35245,568.43602 c -3.54717,-3.57898 -6.72886,-6.39148 -7.07042,-6.25 -0.34156,0.14148 -3.2123,3.06974 -6.37943,6.50724 l -5.75841,6.25 12.82883,0 12.82882,0 z m 364.00619,0.006 -6.44321,-6.50099 -6.2779,6.2221 c -3.45285,3.42216 -6.27791,6.3476 -6.27791,6.50099 0,0.15339 5.7245,0.27889 12.72111,0.27889 l 12.72111,0 z m -356.57742,-8.12498 c -0.91503,-5.43072 -1.7959,-10.02321 -1.9575,-10.20555 -0.44944,-0.50713 -8.4641,7.48045 -8.4641,8.4355 0,1.00933 11.23629,12.49306 11.73546,11.99389 0.1924,-0.1924 -0.39884,-4.79313 -1.31386,-10.22384 z m 364.12609,-0.042 c -0.91741,-5.38211 -1.78151,-9.89914 -1.92022,-10.03785 -0.13871,-0.13871 -2.23268,1.76576 -4.65327,4.23216 l -4.40106,4.48435 5.90625,5.96853 c 3.24843,3.28269 6.09301,5.78176 6.32129,5.55349 0.22827,-0.22828 -0.33557,-4.81858 -1.25299,-10.20068 z m -387.19096,3.91829 5.56949,-5.74974 -4.17261,-4.25159 c -2.85104,-2.90499 -4.38222,-3.85526 -4.83437,-3.00026 -0.58682,1.10965 -2.91924,15.32526 -2.91924,17.79217 0,1.6087 0.58538,1.16754 6.35673,-4.79058 z m 364.12878,0.0438 5.52665,-5.70596 -4.19371,-4.27308 c -2.30654,-2.35019 -4.36052,-4.10628 -4.56439,-3.90241 -0.34244,0.34245 -3.24167,17.14539 -3.25025,18.8374 -0.007,1.46763 1.02337,0.67946 6.4817,-4.95595 z m -351.48551,-12.79405 3.39233,-3.5 -7.39233,0 -7.39233,0 3.39233,3.5 c 1.86578,1.925 3.66578,3.5 4,3.5 0.33422,0 2.13422,-1.575 4,-3.5 z m 364.43234,0 3.60404,-3.5 -7.71361,0 -7.7136,0 3.82111,3.5 c 2.10161,1.925 3.95091,3.5 4.10956,3.5 0.15866,0 1.91028,-1.575 3.8925,-3.5 z M 154.96901,535.21667 c 4.09311,-5.07463 9.36485,-11.26213 11.71497,-13.75 l 4.27295,-4.52341 18.70135,0 18.70134,0 0,-7 0,-7 -18.25,0.002 -18.25,0.002 -14.76296,23.74848 c -8.11963,13.06166 -13.59447,22.39848 -12.16632,20.74848 1.42816,-1.65 5.94556,-7.15197 10.03867,-12.22659 z m 1.97476,-13.73664 13.91585,-22.46322 18.75,-0.0368 18.75,-0.0368 0,-7 0,-7 -18.49444,0 -18.49444,0 -8.64339,17.25 c -9.41744,18.7948 -20.39646,41.75 -19.9682,41.75 0.14782,0 6.5309,-10.10845 14.18462,-22.46323 z m 79.41585,10.46323 0,-11 -11.5,0 -11.5,0 0,11 0,11 11.5,0 11.5,0 z m 364,0 0,-11 -11.5,0 -11.5,0 0,11 0,11 11.5,0 11.5,0 z m -364,-22 0,-7 -11.5,0 -11.5,0 0,7 0,7 11.5,0 11.5,0 z m 95.77381,5.82144 c -6.82657,-6.0482 -6.77381,-2.94978 -6.77381,-12.82144 l -42.5,0 -42.5,0 0,7 0,7 46.08333,0 c 34.93235,0 45.98828,-0.28518 45.69048,-1.17856 z m 19.22619,0.28555 c 0,-1.1557 -2.52014,-2.10699 -5.58179,-2.10699 -4.56699,-1.37089 -2.70084,-8.70037 0.33179,-9.83772 2.16971,-0.79244 0.5871,-1.02104 -7.5,-1.08333 l -10.25,-0.0789 0,3.39159 c 0.0794,4.85008 4.69769,4.05562 6.81711,7.63798 1.6211,2.84919 1.94907,2.95802 8.93289,2.96411 3.9875,0.003 7.25,-0.39554 7.25,-0.88669 z m 221,-6.10699 0,-7 -164.75,0.0222 c -50.81308,0.0214 -52.8418,0.094 -55.25,1.97776 -1.375,1.07554 -3.0625,1.96553 -3.75,1.97776 -3.01938,2.71986 3.66062,5.03232 5.31212,7.4767 l 1.6679,2.54554 52.38499,0 164.38499,0 z m 28,0 0,-7 -11.5,0 -11.5,0 0,7 0,7 11.5,0 11.5,0 z m 134.24049,-41.75 0.25951,-48.75 5.05912,-0.29564 c 4.76102,-0.27822 5.52701,-0.73313 13,-7.72062 l 7.94088,-7.42498 -20.74058,-0.0294 -20.74057,-0.0294 -0.25943,49.25 -0.25942,49.25 -56.75,0.25826 -56.75,0.25825 0,6.99175 0,6.99174 64.49049,0 64.49048,0 z m -498.24049,23.75 0,-7 -11.5,0 -11.5,0 0,7 0,7 11.5,0 11.5,0 z m 115.46641,4.75 c -0.81167,-2.73244 -3.21471,-4.75 -5.65754,-4.75 -2.75107,-1.4301 -1.80887,-3.96033 -1.80887,-7 l -52,0 -52,0 0,7 0,7 56.06739,0 56.06739,0 z m 220.53359,-4.75 0,-7 -168,0 c -53.07785,0 -56,0.0931 -56,1.78439 1.40185,3.69422 8.64637,7.19089 6.47158,11.2616 -0.3713,0.60077 19.05653,0.95401 52.4694,0.95401 l 165.05902,0 z m 28,0 0,-7 -11.5,0 -11.5,0 0,7 0,7 11.5,0 11.5,0 z m 115,-41.39301 c 0,-43.20561 0.16956,-48.45808 1.58179,-49 0.86998,-0.33384 10.87122,-0.60699 22.22497,-0.60699 l 20.64318,0 -7.44994,-7.5 -7.44994,-7.5 -21.77503,0 -21.77503,0 0,48.89301 c 0,43.66154 -0.16925,48.95796 -1.58179,49.5 -0.86998,0.33385 -22.46998,0.60699 -48,0.60699 l -46.41821,0 0,7 0,7 55,0 55,0 z m -486.80833,25.20377 -5.00232,-5.18924 -2.84467,3.35546 c -6.31533,7.44928 -6.53963,7.02302 3.69561,7.02302 l 9.15369,0 z m 364.33751,0.21886 c -5.42838,-5.51126 -8.42796,-7.04819 -10.651,1.12418 l -3.04624,3.8462 9.29644,0 9.29644,0 z"
       id="path3398"
       inkscape:connector-curvature="0"
       sodipodi:nodetypes="ssscccssssscccsssscccssscccccccsssscccccssssscssssccccsssssscssscscssssscccscsscscssssccsssscccccsscccccsscscsssssscsssssccsssscccccsscssssssscssssscscssscssscsscssssssscsssssccccsccsssccsssssssccscssccsssscccssscccsssscscssssscccccccsssscccccccssscccccccccccccccccccccccccccssscccssssscsccssccssscsccccccccccccccsscccccccccccccccccccccsssccscccsccssscsccccccccccssscccccssscccccsccssccsscccsscccs" />
    <text
       xml:space="preserve"
       style="font-size:20px;font-style:normal;font-weight:normal;text-align:center;line-height:100%;writing-mode:lr-tb;text-anchor:middle;fill:#000000;fill-opacity:1;stroke:none;font-family:Bitstream Vera Sans"
       x="404.36713"
       y="442.375"
       id="text2386"
       sodipodi:linespacing="100%"><tspan
         sodipodi:role="line"
         x="408.80463"
         y="442.375"
         id="tspan2390"
         style="font-size:28px;font-style:normal;font-variant:normal;font-weight:normal;font-stretch:normal;text-align:center;line-height:100%;writing-mode:lr-tb;text-anchor:middle;font-family:Arial;-inkscape-font-specification:Arial"><tspan
   id="tspan3043"
   style="font-size:32px;font-style:normal;font-variant:normal;font-weight:normal;font-stretch:normal;text-align:center;line-height:100%;writing-mode:lr-tb;text-anchor:middle;font-family:Arial;-inkscape-font-specification:Arial">Transmission lines </tspan></tspan><tspan
         sodipodi:role="line"
         x="404.36713"
         y="471.22595"
         style="font-size:28px;font-style:normal;font-variant:normal;font-weight:normal;font-stretch:normal;text-align:center;line-height:100%;writing-mode:lr-tb;text-anchor:middle;font-family:Arial;-inkscape-font-specification:Arial"
         id="tspan3045">154-400 kV</tspan></text>
    <flowRoot
       xml:space="preserve"
       id="flowRoot2392"
       style="font-size:20px;font-style:normal;font-weight:normal;fill:#000000;fill-opacity:1;stroke:none;stroke-width:1px;stroke-linecap:butt;stroke-linejoin:miter;stroke-opacity:1;font-family:Bitstream Vera Sans"><flowRegion
         id="flowRegion2394"><rect
           id="rect2396"
           width="215.30157"
           height="32.424934"
           x="469.51306"
           y="122.08419" /></flowRegion><flowPara
         id="flowPara2398" /></flowRoot>    <flowRoot
       xml:space="preserve"
       id="flowRoot2408"
       style="font-size:20px;font-style:normal;font-weight:normal;fill:#000000;fill-opacity:1;stroke:none;stroke-width:1px;stroke-linecap:butt;stroke-linejoin:miter;stroke-opacity:1;font-family:Bitstream Vera Sans"><flowRegion
         id="flowRegion2410"><rect
           id="rect2412"
           width="290.52744"
           height="32.424934"
           x="387.80222"
           y="105.22323" /></flowRegion><flowPara
         id="flowPara2414" /></flowRoot>    <text
       xml:space="preserve"
       style="font-size:28px;font-style:normal;font-variant:normal;font-weight:normal;font-stretch:normal;text-align:center;line-height:100%;writing-mode:lr-tb;text-anchor:middle;fill:#000000;fill-opacity:1;stroke:none;font-family:Arial;-inkscape-font-specification:Arial"
       x="-49.241608"
       y="541.05981"
       id="text2428"
       sodipodi:linespacing="100%"><tspan
         sodipodi:role="line"
         id="tspan2430"
         x="-49.241608"
         y="541.05981">Generating Station</tspan><tspan
         sodipodi:role="line"
         x="-49.241608"
         y="569.05981"
         id="tspan2432" /></text>
    <text
       xml:space="preserve"
       style="font-size:28px;font-style:normal;font-variant:normal;font-weight:normal;font-stretch:normal;text-align:center;line-height:100%;writing-mode:lr-tb;text-anchor:middle;fill:#000000;fill-opacity:1;stroke:none;font-family:Arial;-inkscape-font-specification:Arial"
       x="97.113503"
       y="697.79352"
       id="text2434"
       sodipodi:linespacing="100%"><tspan
         sodipodi:role="line"
         x="97.113503"
         y="697.79352"
         id="tspan2438">Step Up</tspan><tspan
         sodipodi:role="line"
         x="97.113503"
         y="725.79352"
         id="tspan2440">Transformer</tspan></text>
    <text
       xml:space="preserve"
       style="font-size:28px;font-style:normal;font-variant:normal;font-weight:normal;font-stretch:normal;text-align:center;line-height:100%;writing-mode:lr-tb;text-anchor:middle;fill:#000000;fill-opacity:1;stroke:none;font-family:Arial;-inkscape-font-specification:Arial"
       x="787.35284"
       y="314.86835"
       id="text2442"
       sodipodi:linespacing="100%"><tspan
         sodipodi:role="line"
         id="tspan2444"
         x="787.35284"
         y="314.86835" /><tspan
         sodipodi:role="line"
         x="787.35284"
         y="342.86835"
         id="tspan2446">Step Down</tspan><tspan
         sodipodi:role="line"
         x="787.35284"
         y="370.86835"
         id="tspan2448">Transformer</tspan></text>
    <flowRoot
       xml:space="preserve"
       id="flowRoot3230"
       style="font-size:28px;font-style:normal;font-variant:normal;font-weight:normal;font-stretch:normal;text-align:center;line-height:100%;writing-mode:lr-tb;text-anchor:middle;fill:#000000;fill-opacity:1;stroke:none;stroke-width:1px;stroke-linecap:butt;stroke-linejoin:miter;stroke-opacity:1;font-family:Arial;-inkscape-font-specification:Arial"><flowRegion
         id="flowRegion3232"><rect
           id="rect3234"
           width="77.819847"
           height="32.424934"
           x="208.81659"
           y="76.689285" /></flowRegion><flowPara
         id="flowPara3236" /></flowRoot>    <rect
       style="opacity:0;fill:#050c07;fill-opacity:1;stroke:#039d47;stroke-width:1.79499996;stroke-miterlimit:4;stroke-dasharray:none;stroke-dashoffset:0;stroke-opacity:1"
       id="rect3250"
       width="260.69647"
       height="133.59073"
       x="3.8909922"
       y="9.2454166"
       transform="translate(-187.5,288.86218)" />
    <rect
       style="opacity:0;fill:#050c07;fill-opacity:1;stroke:#039d47;stroke-width:1.79499996;stroke-miterlimit:4;stroke-dasharray:none;stroke-dashoffset:0;stroke-opacity:1"
       id="rect3252"
       width="146.56071"
       height="81.710838"
       x="118.02676"
       y="58.531319"
       transform="translate(-187.5,288.86218)" />
    <rect
       style="opacity:0;fill:#2936cb;fill-opacity:1;stroke:#039d47;stroke-width:1.79499996;stroke-miterlimit:4;stroke-dasharray:none;stroke-dashoffset:0;stroke-opacity:1"
       id="rect3260"
       width="291.82443"
       height="163.42168"
       x="156.93669"
       y="535.82635"
       transform="translate(-187.5,288.86218)"
       rx="1" />
    <text
       xml:space="preserve"
       style="font-size:28px;font-style:normal;font-variant:normal;font-weight:normal;font-stretch:normal;text-align:center;line-height:100%;writing-mode:lr-tb;text-anchor:middle;fill:#000000;fill-opacity:1;stroke:none;font-family:Arial;-inkscape-font-specification:Arial"
       x="1120.7346"
       y="468.0065"
       id="text3280"
       sodipodi:linespacing="100%"><tspan
         sodipodi:role="line"
         id="tspan3062"
         x="1120.7346"
         y="468.0065">Industrial</tspan><tspan
         sodipodi:role="line"
         id="tspan3064"
         x="1120.7346"
         y="496.0065">13kV and 4kV</tspan></text>
    <text
       xml:space="preserve"
       style="font-size:28px;font-style:normal;font-variant:normal;font-weight:normal;font-stretch:normal;text-align:center;line-height:100%;writing-mode:lr-tb;text-anchor:middle;fill:#000000;fill-opacity:1;stroke:none;font-family:Arial;-inkscape-font-specification:Arial"
       x="1109.6345"
       y="703.16797"
       id="text3286"
       sodipodi:linespacing="100%"><tspan
         sodipodi:role="line"
         id="tspan3058"
         x="1109.6345"
         y="703.16797">Domestic</tspan><tspan
         sodipodi:role="line"
         id="tspan3060"
         x="1109.6345"
         y="731.16797">220 V</tspan></text>
    <text
       xml:space="preserve"
       style="font-size:20px;font-style:normal;font-weight:normal;text-align:center;line-height:100%;writing-mode:lr-tb;text-anchor:middle;fill:#000000;fill-opacity:1;stroke:none;font-family:Bitstream Vera Sans"
       x="397.37033"
       y="566.48022"
       id="text2386-7"
       sodipodi:linespacing="100%"><tspan
         sodipodi:role="line"
         x="397.37033"
         y="566.48022"
         style="font-size:32px;font-style:normal;font-variant:normal;font-weight:normal;font-stretch:normal;text-align:center;line-height:100%;writing-mode:lr-tb;text-anchor:middle;font-family:Arial;-inkscape-font-specification:Arial"
         id="tspan3045-2">hundreds of km</tspan></text>
  </g>
</svg>
