<?xml version="1.0" encoding="UTF-8" standalone="no"?>
<!-- Created with Inkscape (http://www.inkscape.org/) -->

<svg
   xmlns:dc="http://purl.org/dc/elements/1.1/"
   xmlns:cc="http://creativecommons.org/ns#"
   xmlns:rdf="http://www.w3.org/1999/02/22-rdf-syntax-ns#"
   xmlns:svg="http://www.w3.org/2000/svg"
   xmlns="http://www.w3.org/2000/svg"
   xmlns:sodipodi="http://sodipodi.sourceforge.net/DTD/sodipodi-0.dtd"
   xmlns:inkscape="http://www.inkscape.org/namespaces/inkscape"
   width="386.21121"
   height="250.52303"
   id="svg2"
   sodipodi:version="0.32"
   inkscape:version="0.48.5 r10040"
   sodipodi:docname="Transformer_equivalent_circuit_combined.svg"
   version="1.0"
   inkscape:output_extension="org.inkscape.output.svg.inkscape">
  <defs
     id="defs4">
    <marker
       inkscape:stockid="Arrow1Lend"
       orient="auto"
       refY="0"
       refX="0"
       id="Arrow1Lend"
       style="overflow:visible">
      <path
         id="path4167"
         d="M 0,0 5,-5 -12.5,0 5,5 0,0 z"
         style="fill-rule:evenodd;stroke:#000000;stroke-width:1pt;marker-start:none"
         transform="scale(-0.8,-0.8)"
         inkscape:connector-curvature="0" />
    </marker>
    <marker
       inkscape:stockid="Dot_l"
       orient="auto"
       refY="0"
       refX="0"
       id="Dot_l"
       style="overflow:visible">
      <path
         id="path4105"
         d="m -2.5,-1 c 0,2.76 -2.24,5 -5,5 -2.76,0 -5,-2.24 -5,-5 0,-2.76 2.24,-5 5,-5 2.76,0 5,2.24 5,5 z"
         style="fill-rule:evenodd;stroke:#000000;stroke-width:1pt;marker-start:none;marker-end:none"
         transform="matrix(0.8,0,0,0.8,5.700394,0.8)"
         inkscape:connector-curvature="0" />
    </marker>
    <marker
       inkscape:stockid="Arrow2Lend"
       orient="auto"
       refY="0"
       refX="0"
       id="Arrow2Lend"
       style="overflow:visible">
      <path
         id="path4149"
         style="font-size:12px;fill-rule:evenodd;stroke-width:0.625;stroke-linejoin:round"
         d="M 8.7185878,4.0337352 -2.2072895,0.01601326 8.7185884,-4.0017078 c -1.7454984,2.3720609 -1.7354408,5.6174519 -6e-7,8.035443 z"
         transform="matrix(-1.1,0,0,-1.1,5.5,0)"
         inkscape:connector-curvature="0" />
    </marker>
    <marker
       inkscape:stockid="Arrow2Lstart"
       orient="auto"
       refY="0"
       refX="0"
       id="Arrow2Lstart"
       style="overflow:visible">
      <path
         id="path11473"
         style="font-size:12px;fill-rule:evenodd;stroke-width:0.625;stroke-linejoin:round"
         d="M 8.7185878,4.0337352 -2.2072895,0.01601326 8.7185884,-4.0017078 c -1.7454984,2.3720609 -1.7354408,5.6174519 -6e-7,8.035443 z"
         transform="matrix(1.1,0,0,1.1,-5.5,0)"
         inkscape:connector-curvature="0" />
    </marker>
    <marker
       inkscape:stockid="Arrow1Lstart"
       orient="auto"
       refY="0"
       refX="0"
       id="Arrow1Lstart"
       style="overflow:visible">
      <path
         id="path11491"
         d="M 0,0 5,-5 -12.5,0 5,5 0,0 z"
         style="fill-rule:evenodd;stroke:#000000;stroke-width:1pt;marker-start:none"
         transform="scale(0.8,0.8)"
         inkscape:connector-curvature="0" />
    </marker>
  </defs>
  <sodipodi:namedview
     id="base"
     pagecolor="#ffffff"
     bordercolor="#666666"
     borderopacity="1.0"
     inkscape:pageopacity="0.0"
     inkscape:pageshadow="2"
     inkscape:zoom="1.1298092"
     inkscape:cx="249.56807"
     inkscape:cy="-19.960974"
     inkscape:document-units="px"
     inkscape:current-layer="layer1"
     inkscape:window-width="1680"
     inkscape:window-height="1000"
     inkscape:window-x="0"
     inkscape:window-y="34"
     showguides="true"
     inkscape:guide-bbox="true"
     height="275px"
     width="750px"
     showgrid="false"
     inkscape:window-maximized="0"
     fit-margin-top="0"
     fit-margin-left="0"
     fit-margin-right="0"
     fit-margin-bottom="0" />
  <metadata
     id="metadata7">
    <rdf:RDF>
      <cc:Work
         rdf:about="">
        <dc:format>image/svg+xml</dc:format>
        <dc:type
           rdf:resource="http://purl.org/dc/dcmitype/StillImage" />
      </cc:Work>
    </rdf:RDF>
  </metadata>
  <g
     inkscape:label="Layer 1"
     inkscape:groupmode="layer"
     id="layer1"
     transform="translate(-188.0563,-45.313473)">
    <g
       id="g20053"
       transform="matrix(2.4831195,0,0,2.4831195,-95.14169,-333.81341)">
      <path
         sodipodi:nodetypes="cc"
         style="fill:#000000;fill-opacity:1;fill-rule:evenodd;stroke:#000000;stroke-width:0.5;stroke-linecap:butt;stroke-linejoin:miter;stroke-miterlimit:4;stroke-opacity:1;marker-start:none;marker-end:none"
         d="m 124.93008,237.82962 0,-47.61579"
         id="path19084"
         inkscape:connector-curvature="0" />
      <path
         style="fill:#000000;fill-opacity:1;fill-rule:evenodd;stroke:none"
         d="m 124.92887,186.86216 -1.31539,4.90911 2.86084,0 -1.54545,-4.90911 z"
         id="path19086"
         inkscape:connector-curvature="0" />
    </g>
    <g
       id="g20077"
       transform="matrix(2.4831195,0,0,2.4831195,-290.21394,-352.80863)">
      <path
         sodipodi:nodetypes="cc"
         style="fill:#000000;fill-opacity:1;fill-rule:evenodd;stroke:#000000;stroke-width:0.5;stroke-linecap:butt;stroke-linejoin:miter;stroke-miterlimit:4;stroke-opacity:1;marker-start:none;marker-end:none"
         d="m 200.45221,173.82188 10.90278,0"
         id="path20045"
         inkscape:connector-curvature="0" />
      <path
         style="fill:#000000;fill-opacity:1;fill-rule:evenodd;stroke:none"
         d="m 215.18784,173.70685 -4.90911,-1.31539 0,2.86084 4.90911,-1.54545 z"
         id="path20047"
         inkscape:connector-curvature="0" />
    </g>
    <g
       id="g20071"
       transform="matrix(2.4831195,0,0,2.4831195,241.35316,-337.71802)">
      <path
         id="path20073"
         d="m 124.93008,237.82962 0,-47.61579"
         style="fill:#000000;fill-opacity:1;fill-rule:evenodd;stroke:#000000;stroke-width:0.5;stroke-linecap:butt;stroke-linejoin:miter;stroke-miterlimit:4;stroke-opacity:1;marker-start:none;marker-end:none"
         sodipodi:nodetypes="cc"
         inkscape:connector-curvature="0" />
      <path
         id="path20075"
         d="m 124.92887,186.86216 -1.31539,4.90911 2.86084,0 -1.54545,-4.90911 z"
         style="fill:#000000;fill-opacity:1;fill-rule:evenodd;stroke:none"
         inkscape:connector-curvature="0" />
    </g>
    <path
       sodipodi:type="arc"
       style="fill:#ffffff;fill-opacity:1;fill-rule:evenodd;stroke:#000000;stroke-width:3.14526725;stroke-linecap:square;stroke-linejoin:miter;stroke-miterlimit:4;stroke-opacity:1;stroke-dasharray:none;stroke-dashoffset:0"
       id="path6612"
       sodipodi:cx="218.62321"
       sodipodi:cy="220.23235"
       sodipodi:rx="12.260734"
       sodipodi:ry="12.260734"
       d="m 230.88395,220.23235 c 0,6.77141 -5.48932,12.26073 -12.26074,12.26073 -6.77141,0 -12.26073,-5.48932 -12.26073,-12.26073 0,-6.77142 5.48932,-12.26074 12.26073,-12.26074 6.77142,0 12.26074,5.48932 12.26074,12.26074 z"
       transform="matrix(0.3947392,0,0,0.3947392,129.66732,203.44159)" />
    <path
       transform="matrix(0.3947392,0,0,0.3947392,129.66732,7.9805968)"
       d="m 230.88395,220.23235 c 0,6.77141 -5.48932,12.26073 -12.26074,12.26073 -6.77141,0 -12.26073,-5.48932 -12.26073,-12.26073 0,-6.77142 5.48932,-12.26074 12.26073,-12.26074 6.77142,0 12.26074,5.48932 12.26074,12.26074 z"
       sodipodi:ry="12.260734"
       sodipodi:rx="12.260734"
       sodipodi:cy="220.23235"
       sodipodi:cx="218.62321"
       id="path5737"
       style="fill:#ffffff;fill-opacity:1;fill-rule:evenodd;stroke:#000000;stroke-width:3.14526725;stroke-linecap:square;stroke-linejoin:miter;stroke-miterlimit:4;stroke-opacity:1;stroke-dasharray:none;stroke-dashoffset:0"
       sodipodi:type="arc" />
    <text
       xml:space="preserve"
       style="font-size:20px;font-style:italic;font-variant:normal;font-weight:normal;font-stretch:normal;text-align:start;line-height:125%;writing-mode:lr-tb;text-anchor:start;fill:#000000;fill-opacity:1;stroke:none;font-family:Arial"
       x="216.00163"
       y="59.073238"
       id="text7205"
       sodipodi:linespacing="125%"><tspan
         sodipodi:role="line"
         id="tspan7213"
         x="216.00163"
         y="59.073238">I</tspan></text>
    <text
       id="text7209"
       y="71.366776"
       x="222.34328"
       style="font-size:16px;font-style:italic;font-variant:normal;font-weight:normal;font-stretch:normal;text-align:start;line-height:125%;writing-mode:lr-tb;text-anchor:start;fill:#000000;fill-opacity:1;stroke:none;font-family:Arial"
       xml:space="preserve"
       sodipodi:linespacing="125%"><tspan
         sodipodi:role="line"
         id="tspan7211"
         x="222.34328"
         y="71.366776">P</tspan></text>
    <g
       transform="matrix(2.4831195,0,0,2.4831195,39.78606,-352.80863)"
       id="g7215">
      <path
         id="path7217"
         d="m 200.45221,173.82188 10.90278,0"
         style="fill:#000000;fill-opacity:1;fill-rule:evenodd;stroke:#000000;stroke-width:0.5;stroke-linecap:butt;stroke-linejoin:miter;stroke-miterlimit:4;stroke-opacity:1;marker-start:none;marker-end:none"
         sodipodi:nodetypes="cc"
         inkscape:connector-curvature="0" />
      <path
         id="path7219"
         d="m 215.18784,173.70685 -4.90911,-1.31539 0,2.86084 4.90911,-1.54545 z"
         style="fill:#000000;fill-opacity:1;fill-rule:evenodd;stroke:none"
         inkscape:connector-curvature="0" />
    </g>
    <text
       sodipodi:linespacing="125%"
       id="text7221"
       y="59.073238"
       x="547.59039"
       style="font-size:20px;font-style:italic;font-variant:normal;font-weight:normal;font-stretch:normal;text-align:start;line-height:125%;writing-mode:lr-tb;text-anchor:start;fill:#000000;fill-opacity:1;stroke:none;font-family:Arial"
       xml:space="preserve"><tspan
         y="59.073238"
         x="547.59039"
         id="tspan7223"
         sodipodi:role="line">I'</tspan></text>
    <text
       sodipodi:linespacing="125%"
       xml:space="preserve"
       style="font-size:16px;font-style:italic;font-variant:normal;font-weight:normal;font-stretch:normal;text-align:start;line-height:125%;writing-mode:lr-tb;text-anchor:start;fill:#000000;fill-opacity:1;stroke:none;font-family:Arial"
       x="552.34332"
       y="71.366776"
       id="text7225"><tspan
         sodipodi:role="line"
         id="tspan7229"
         x="552.34332"
         y="71.366776">S</tspan></text>
    <path
       id="path7290"
       style="fill:none;stroke:#000000;stroke-width:1.5;stroke-linecap:square;stroke-linejoin:round;stroke-miterlimit:4;stroke-opacity:1;stroke-dashoffset:0"
       d="m 258.10146,162.74651 0,-33.53541 85.67243,0 0,32.5654 0,0 c 4.8039,0 8.70273,3.98187 8.70273,8.8881 0,4.90623 -3.89883,8.88808 -8.70273,8.88808 -2.82351,0 -7.00383,-1.45261 -7.01029,-3.68076 -0.006,-2.22817 4.13337,-3.69084 7.01029,-3.69084 4.8039,0 8.70273,3.98187 8.70273,8.8881 0,4.90621 -3.89883,8.88808 -8.70273,8.88808 -2.88413,0 -6.74251,-1.45234 -6.8448,-3.61142 -0.10228,-2.15909 4.03014,-3.76018 6.8448,-3.76018 4.8039,0 8.70273,3.98187 8.70273,8.88809 0,4.90622 -3.89883,8.88808 -8.70273,8.88808 -2.84302,0 -6.94883,-1.31335 -6.96571,-3.53421 -0.0169,-2.22087 3.99828,-3.83739 6.96571,-3.83739 4.8039,0 8.70273,3.98185 8.70273,8.88808 0,4.90622 -3.89883,8.88808 -8.70273,8.88808 -2.92573,0 -7.0981,-1.51979 -7.07875,-3.76935 0.0193,-2.24956 4.21871,-3.60223 7.07875,-3.60223 4.8039,0 8.70273,3.98187 8.70273,8.88809 0,4.90622 -3.89883,8.88809 -8.70273,8.88809 -2.83131,0 -6.92042,-1.42385 -6.92074,-3.73089 -3.2e-4,-2.30706 4.05408,-3.64071 6.92074,-3.64071 4.8039,0 8.70273,3.98187 8.70273,8.88808 0,4.90623 -3.89883,8.8881 -8.70273,8.8881 l 0,32.55904 -85.67243,0 0,-41.53542 m 42.36561,-127.326062 0,33.797492 m 0,135.48856 0,25.61469 m -49.8472,-127.42736 14.96317,0 0,59.85268 -14.96317,0 0,-59.85268 z"
       sodipodi:nodetypes="cccccsssssssssssssssssssssccccccccccccc"
       inkscape:connector-curvature="0" />
    <text
       sodipodi:linespacing="125%"
       id="text2243"
       y="185.22791"
       x="186.32779"
       style="font-size:20px;font-style:italic;font-variant:normal;font-weight:normal;font-stretch:normal;text-align:start;line-height:125%;writing-mode:lr-tb;text-anchor:start;fill:#000000;fill-opacity:1;stroke:none;font-family:Arial"
       xml:space="preserve"><tspan
         sodipodi:role="line"
         id="tspan2259"
         x="186.32779"
         y="185.22791">V</tspan></text>
    <text
       sodipodi:linespacing="125%"
       xml:space="preserve"
       style="font-size:16px;font-style:italic;font-variant:normal;font-weight:normal;font-stretch:normal;text-align:start;line-height:125%;writing-mode:lr-tb;text-anchor:start;fill:#000000;fill-opacity:1;stroke:none;font-family:Arial"
       x="196.83661"
       y="197.52144"
       id="text2247"><tspan
         y="197.52144"
         x="196.83661"
         id="tspan2249"
         sodipodi:role="line">P</tspan></text>
    <text
       xml:space="preserve"
       style="font-size:20px;font-style:italic;font-variant:normal;font-weight:normal;font-stretch:normal;text-align:start;line-height:125%;writing-mode:lr-tb;text-anchor:start;fill:#000000;fill-opacity:1;stroke:none;font-family:Arial"
       x="554.45032"
       y="181.68748"
       id="text2251"
       sodipodi:linespacing="125%"><tspan
         sodipodi:role="line"
         id="tspan2261"
         x="554.45032"
         y="181.68748">V'</tspan></text>
    <text
       id="text2255"
       y="193.98102"
       x="563.76752"
       style="font-size:16px;font-style:italic;font-variant:normal;font-weight:normal;font-stretch:normal;text-align:start;line-height:125%;writing-mode:lr-tb;text-anchor:start;fill:#000000;fill-opacity:1;stroke:none;font-family:Arial"
       xml:space="preserve"
       sodipodi:linespacing="125%"><tspan
         y="193.98102"
         x="563.76752"
         id="tspan2257"
         sodipodi:role="line">S</tspan></text>
    <text
       sodipodi:linespacing="125%"
       id="text2263"
       y="69.744766"
       x="382.6824"
       style="font-size:16px;font-style:italic;font-variant:normal;font-weight:normal;font-stretch:normal;text-align:start;line-height:125%;writing-mode:lr-tb;text-anchor:start;fill:#000000;fill-opacity:1;stroke:none;font-family:Arial"
       xml:space="preserve"><tspan
         sodipodi:role="line"
         id="tspan2271"
         x="382.6824"
         y="69.744766">R</tspan></text>
    <text
       sodipodi:linespacing="125%"
       xml:space="preserve"
       style="font-size:13px;font-style:italic;font-variant:normal;font-weight:normal;font-stretch:normal;text-align:start;line-height:125%;writing-mode:lr-tb;text-anchor:start;fill:#000000;fill-opacity:1;stroke:none;font-family:Arial"
       x="392.96429"
       y="79.366776"
       id="text2267"><tspan
         y="79.366776"
         x="392.96429"
         id="tspan2269"
         sodipodi:role="line">eq</tspan></text>
    <text
       xml:space="preserve"
       style="font-size:16px;font-style:italic;font-variant:normal;font-weight:normal;font-stretch:normal;text-align:start;line-height:125%;writing-mode:lr-tb;text-anchor:start;fill:#000000;fill-opacity:1;stroke:none;font-family:Arial"
       x="462.6824"
       y="69.744766"
       id="text2273"
       sodipodi:linespacing="125%"><tspan
         sodipodi:role="line"
         id="tspan2297"
         x="462.6824"
         y="69.744766">X</tspan></text>
    <text
       id="text2277"
       y="79.366776"
       x="472.96429"
       style="font-size:13px;font-style:italic;font-variant:normal;font-weight:normal;font-stretch:normal;text-align:start;line-height:125%;writing-mode:lr-tb;text-anchor:start;fill:#000000;fill-opacity:1;stroke:none;font-family:Arial"
       xml:space="preserve"
       sodipodi:linespacing="125%"><tspan
         sodipodi:role="line"
         id="tspan2279"
         x="472.96429"
         y="79.366776">eq</tspan></text>
    <text
       xml:space="preserve"
       style="font-size:16px;font-style:italic;font-variant:normal;font-weight:normal;font-stretch:normal;text-align:start;line-height:125%;writing-mode:lr-tb;text-anchor:start;fill:#000000;fill-opacity:1;stroke:none;font-family:Arial"
       x="224.07962"
       y="194.31636"
       id="text2305"
       sodipodi:linespacing="125%"><tspan
         y="194.31636"
         x="224.07962"
         id="tspan2307"
         sodipodi:role="line">R</tspan></text>
    <text
       id="text2309"
       y="203.93837"
       x="234.36148"
       style="font-size:13px;font-style:italic;font-variant:normal;font-weight:normal;font-stretch:normal;text-align:start;line-height:125%;writing-mode:lr-tb;text-anchor:start;fill:#000000;fill-opacity:1;stroke:none;font-family:Arial"
       xml:space="preserve"
       sodipodi:linespacing="125%"><tspan
         sodipodi:role="line"
         id="tspan2308"
         x="234.36148"
         y="203.93837">C</tspan></text>
    <text
       sodipodi:linespacing="125%"
       id="text2315"
       y="194.31636"
       x="357.78198"
       style="font-size:16px;font-style:italic;font-variant:normal;font-weight:normal;font-stretch:normal;text-align:start;line-height:125%;writing-mode:lr-tb;text-anchor:start;fill:#000000;fill-opacity:1;stroke:none;font-family:Arial"
       xml:space="preserve"><tspan
         sodipodi:role="line"
         id="tspan2323"
         x="357.78198"
         y="194.31636">X</tspan></text>
    <text
       sodipodi:linespacing="125%"
       xml:space="preserve"
       style="font-size:13px;font-style:italic;font-variant:normal;font-weight:normal;font-stretch:normal;text-align:start;line-height:125%;writing-mode:lr-tb;text-anchor:start;fill:#000000;fill-opacity:1;stroke:none;font-family:Arial"
       x="366.0639"
       y="203.93837"
       id="text2319"><tspan
         y="203.93837"
         x="366.0639"
         id="tspan2321"
         sodipodi:role="line">M</tspan></text>
    <path
       id="path3254"
       style="fill:none;stroke:#000000;stroke-width:1.5;stroke-linecap:square;stroke-linejoin:round;stroke-miterlimit:4;stroke-opacity:1;stroke-dashoffset:0"
       d="m 365.10977,93.980071 -143.94521,0.809174 m -0.0714,195.346145 339.14744,0.22128 m 0,-195.24042 -52.65861,0.115548 c 0,-4.8039 -3.98187,-8.70273 -8.8881,-8.70273 -4.90621,0 -8.88808,3.89883 -8.88808,8.70273 0,2.86665 1.33365,6.921062 3.64071,6.920732 2.30704,-3.1e-4 3.73089,-4.089432 3.73089,-6.920732 0,-4.8039 -3.98187,-8.70273 -8.88809,-8.70273 -4.90622,0 -8.88809,3.89883 -8.88809,8.70273 0,2.86004 1.35267,7.059422 3.60223,7.078752 2.24956,0.0193 3.76935,-4.153022 3.76935,-7.078752 0,-4.8039 -3.98186,-8.70273 -8.88808,-8.70273 -4.90623,0 -8.88808,3.89883 -8.88808,8.70273 0,2.96742 1.61652,6.982582 3.83739,6.965702 2.22086,-0.0169 3.53421,-4.122692 3.53421,-6.965702 0,-4.8039 -3.98186,-8.70273 -8.88808,-8.70273 -4.90622,0 -8.88809,3.89883 -8.88809,8.70273 0,2.81466 1.60109,6.947072 3.76018,6.844792 2.15908,-0.10228 3.61142,-3.960672 3.61142,-6.844792 0,-4.8039 -3.98187,-8.70273 -8.88808,-8.70273 -4.90623,0 -8.8881,3.89883 -8.8881,8.70273 0,2.87691 1.46267,7.016732 3.69084,7.010282 2.22815,-0.006 3.68076,-4.186782 3.68076,-7.010282 0,-4.8039 -3.98185,-8.70273 -8.88808,-8.70273 -4.90623,0 -8.8881,3.89883 -8.8881,8.70273 l 0,0 -12.45722,0 m 0,-7.695497 0,14.963169 -59.85268,0 0,-14.963169 z"
       sodipodi:nodetypes="ccccccssssssssssssssssssssscccccccc"
       inkscape:connector-curvature="0" />
    <text
       xml:space="preserve"
       style="font-size:16px;font-style:italic;font-variant:normal;font-weight:normal;font-stretch:normal;text-align:start;line-height:125%;writing-mode:lr-tb;text-anchor:start;fill:#000000;fill-opacity:1;stroke:none;font-family:Arial"
       x="353.78198"
       y="146.31636"
       id="text4644"
       sodipodi:linespacing="125%"><tspan
         sodipodi:role="line"
         id="tspan4652"
         x="353.78198"
         y="146.31636">I</tspan></text>
    <text
       id="text4648"
       y="155.93837"
       x="358.0639"
       style="font-size:13px;font-style:italic;font-variant:normal;font-weight:normal;font-stretch:normal;text-align:start;line-height:125%;writing-mode:lr-tb;text-anchor:start;fill:#000000;fill-opacity:1;stroke:none;font-family:Arial"
       xml:space="preserve"
       sodipodi:linespacing="125%"><tspan
         sodipodi:role="line"
         id="tspan4650"
         x="358.0639"
         y="155.93837">M</tspan></text>
    <path
       style="fill:#000000;fill-opacity:1;fill-rule:evenodd;stroke:none"
       d="m 343.71729,151.37976 -2.76393,-10.31517 6.01127,0 -3.24734,10.31517 z"
       id="path4658"
       inkscape:connector-curvature="0" />
    <path
       id="path4662"
       d="m 300.39106,116.88509 -2.76393,-10.31517 6.01127,0 -3.24734,10.31517 z"
       style="fill:#000000;fill-opacity:1;fill-rule:evenodd;stroke:none"
       inkscape:connector-curvature="0" />
    <text
       sodipodi:linespacing="125%"
       id="text4664"
       y="146.31636"
       x="237.78198"
       style="font-size:16px;font-style:italic;font-variant:normal;font-weight:normal;font-stretch:normal;text-align:start;line-height:125%;writing-mode:lr-tb;text-anchor:start;fill:#000000;fill-opacity:1;stroke:none;font-family:Arial"
       xml:space="preserve"><tspan
         y="146.31636"
         x="237.78198"
         id="tspan4666"
         sodipodi:role="line">I</tspan></text>
    <text
       sodipodi:linespacing="125%"
       xml:space="preserve"
       style="font-size:13px;font-style:italic;font-variant:normal;font-weight:normal;font-stretch:normal;text-align:start;line-height:125%;writing-mode:lr-tb;text-anchor:start;fill:#000000;fill-opacity:1;stroke:none;font-family:Arial"
       x="242.0639"
       y="155.93837"
       id="text4668"><tspan
         sodipodi:role="line"
         id="tspan4674"
         x="242.0639"
         y="155.93837">C</tspan></text>
    <text
       sodipodi:linespacing="125%"
       id="text2310"
       y="113.14651"
       x="306.16721"
       style="font-size:16px;font-style:italic;font-variant:normal;font-weight:normal;font-stretch:normal;text-align:start;line-height:125%;writing-mode:lr-tb;text-anchor:start;fill:#000000;fill-opacity:1;stroke:none;font-family:Arial"
       xml:space="preserve"><tspan
         y="113.14651"
         x="306.16721"
         id="tspan2312"
         sodipodi:role="line">I</tspan></text>
    <text
       sodipodi:linespacing="125%"
       xml:space="preserve"
       style="font-size:13px;font-style:italic;font-variant:normal;font-weight:normal;font-stretch:normal;text-align:start;line-height:125%;writing-mode:lr-tb;text-anchor:start;fill:#000000;fill-opacity:1;stroke:none;font-family:Arial"
       x="308.87122"
       y="121.50618"
       id="text2314"><tspan
         sodipodi:role="line"
         id="tspan2318"
         x="308.87122"
         y="121.50618">0</tspan></text>
    <path
       id="path2320"
       d="m 258.0108,151.37976 -2.76393,-10.31517 6.01127,0 -3.24734,10.31517 z"
       style="fill:#000000;fill-opacity:1;fill-rule:evenodd;stroke:none"
       inkscape:connector-curvature="0" />
  </g>
</svg>
