<?xml version="1.0" encoding="UTF-8" standalone="no"?>
<!-- Created with Inkscape (http://www.inkscape.org/) -->

<svg
   xmlns:dc="http://purl.org/dc/elements/1.1/"
   xmlns:cc="http://creativecommons.org/ns#"
   xmlns:rdf="http://www.w3.org/1999/02/22-rdf-syntax-ns#"
   xmlns:svg="http://www.w3.org/2000/svg"
   xmlns="http://www.w3.org/2000/svg"
   version="1.1"
   width="498.55325"
   height="378.63623"
   id="svg3020"
   xml:space="preserve"><metadata
     id="metadata3026"><rdf:RDF><cc:Work
         rdf:about=""><dc:format>image/svg+xml</dc:format><dc:type
           rdf:resource="http://purl.org/dc/dcmitype/StillImage" /><dc:title></dc:title></cc:Work></rdf:RDF></metadata><defs
     id="defs3024"><clipPath
       id="clipPath3034"><path
         d="M 0,0 612,0 612,811 0,811 0,0 z"
         id="path3036" /></clipPath><clipPath
       id="clipPath3038"><path
         d="M 0,0 612,0 612,811 0,811 0,0 z"
         id="path3040" /></clipPath><clipPath
       id="clipPath3042"><path
         d="M 0,0 612,0 612,811 0,811 0,0 z"
         id="path3044" /></clipPath><clipPath
       id="clipPath3046"><path
         d="M 0,0 612,0 612,811 0,811 0,0 z"
         id="path3048" /></clipPath><clipPath
       id="clipPath3050"><path
         d="M 0,0 612,0 612,811 0,811 0,0 z"
         id="path3052" /></clipPath><clipPath
       id="clipPath3054"><path
         d="M 0,0 612,0 612,811 0,811 0,0 z"
         id="path3056" /></clipPath></defs><g
     transform="matrix(1.25,0,0,-1.25,-134.98868,748.84342)"
     id="g3028"><path
       d="m 301.80718,423.25233 c -0.75008,0 -1.76219,0 -2.9983,0"
       id="path3104"
       style="fill:none;stroke:#a26453;stroke-width:0.74977398;stroke-linecap:round;stroke-linejoin:round;stroke-miterlimit:10;stroke-opacity:1;stroke-dasharray:none" /><path
       d="m 304.80648,587.45371 c -2.73729,0 -4.76149,0 -5.9976,0"
       id="path3106"
       style="fill:none;stroke:#a26453;stroke-width:0.74977398;stroke-linecap:round;stroke-linejoin:round;stroke-miterlimit:10;stroke-opacity:1;stroke-dasharray:none" /><path
       d="m 298.80888,587.45371 0,11.24614"
       id="path3108"
       style="fill:none;stroke:#a26453;stroke-width:0.74977398;stroke-linecap:round;stroke-linejoin:round;stroke-miterlimit:10;stroke-opacity:1;stroke-dasharray:none" /><path
       d="m 303.30733,531.97018 c -1.98718,0 -3.48636,0 -4.49845,0"
       id="path3110"
       style="fill:none;stroke:#a26453;stroke-width:0.74977398;stroke-linecap:round;stroke-linejoin:round;stroke-miterlimit:10;stroke-opacity:1;stroke-dasharray:none" /><path
       d="m 299.18292,558.9619 c 0.48803,0 1.01209,0 1.50015,0 0.74907,0 1.49915,0 2.24922,0"
       id="path3112"
       style="fill:none;stroke:#a26453;stroke-width:0.74977398;stroke-linecap:round;stroke-linejoin:round;stroke-miterlimit:10;stroke-opacity:1;stroke-dasharray:none" /><path
       d="m 298.80888,531.97018 0,55.48353"
       id="path3114"
       style="fill:none;stroke:#a26453;stroke-width:0.74977398;stroke-linecap:round;stroke-linejoin:round;stroke-miterlimit:10;stroke-opacity:1;stroke-dasharray:none" /><path
       d="m 303.30733,503.66633 c -1.98718,0 -3.48636,0 -4.49845,0"
       id="path3116"
       style="fill:none;stroke:#a26453;stroke-width:0.74977398;stroke-linecap:round;stroke-linejoin:round;stroke-miterlimit:10;stroke-opacity:1;stroke-dasharray:none" /><path
       d="m 298.80888,503.66633 0,-51.92219"
       id="path3118"
       style="fill:none;stroke:#a26453;stroke-width:0.74977398;stroke-linecap:round;stroke-linejoin:round;stroke-miterlimit:10;stroke-opacity:1;stroke-dasharray:none" /><path
       d="m 298.80888,451.74414 -190.44305,0"
       id="path3120"
       style="fill:none;stroke:#a26453;stroke-width:0.74977398;stroke-linecap:round;stroke-linejoin:round;stroke-miterlimit:10;stroke-opacity:1;stroke-dasharray:none" /><path
       d="m 298.80888,503.66633 0,28.30385"
       id="path3122"
       style="fill:none;stroke:#a26453;stroke-width:0.74977398;stroke-linecap:round;stroke-linejoin:round;stroke-miterlimit:10;stroke-opacity:1;stroke-dasharray:none" /><path
       d="m 302.55725,367.76875 c -0.75007,0 -1.98718,0 -3.74837,0"
       id="path3124"
       style="fill:none;stroke:#a26453;stroke-width:0.74977398;stroke-linecap:round;stroke-linejoin:round;stroke-miterlimit:10;stroke-opacity:1;stroke-dasharray:none" /><path
       d="m 305.55655,317.72179 c -1.98721,0 -4.2364,0 -6.74767,0"
       id="path3126"
       style="fill:none;stroke:#a26453;stroke-width:0.74977398;stroke-linecap:round;stroke-linejoin:round;stroke-miterlimit:10;stroke-opacity:1;stroke-dasharray:none" /><path
       d="m 302.55725,397.75977 c -1.01211,0 -2.24922,0 -3.74837,0"
       id="path3128"
       style="fill:none;stroke:#a26453;stroke-width:0.74977398;stroke-linecap:round;stroke-linejoin:round;stroke-miterlimit:10;stroke-opacity:1;stroke-dasharray:none" /><path
       d="m 298.80888,397.75977 0,25.49256"
       id="path3130"
       style="fill:none;stroke:#a26453;stroke-width:0.74977398;stroke-linecap:round;stroke-linejoin:round;stroke-miterlimit:10;stroke-opacity:1;stroke-dasharray:none" /><path
       d="m 305.55655,344.52644 c -1.98721,0 -4.2364,0 -6.74767,0"
       id="path3132"
       style="fill:none;stroke:#a26453;stroke-width:0.74977398;stroke-linecap:round;stroke-linejoin:round;stroke-miterlimit:10;stroke-opacity:1;stroke-dasharray:none" /><path
       d="m 298.80888,344.52644 0,23.24231"
       id="path3134"
       style="fill:none;stroke:#a26453;stroke-width:0.74977398;stroke-linecap:round;stroke-linejoin:round;stroke-miterlimit:10;stroke-opacity:1;stroke-dasharray:none" /><path
       d="m 298.80888,451.74414 207.64977,0"
       id="path3136"
       style="fill:none;stroke:#a26453;stroke-width:0.74977398;stroke-linecap:round;stroke-linejoin:round;stroke-miterlimit:10;stroke-opacity:1;stroke-dasharray:none" /><path
       d="m 298.80888,317.72179 0,26.80465"
       id="path3138"
       style="fill:none;stroke:#a26453;stroke-width:0.74977398;stroke-linecap:round;stroke-linejoin:round;stroke-miterlimit:10;stroke-opacity:1;stroke-dasharray:none" /><path
       d="m 298.80888,367.76875 0,29.99102"
       id="path3140"
       style="fill:none;stroke:#a26453;stroke-width:0.74977398;stroke-linecap:round;stroke-linejoin:round;stroke-miterlimit:10;stroke-opacity:1;stroke-dasharray:none" /><path
       d="m 298.80888,423.25233 0,28.49181"
       id="path3142"
       style="fill:none;stroke:#a26453;stroke-width:0.74977398;stroke-linecap:round;stroke-linejoin:round;stroke-miterlimit:10;stroke-opacity:1;stroke-dasharray:none" /><path
       d="m 298.80888,296.54064 0,21.18115"
       id="path3144"
       style="fill:none;stroke:#a26453;stroke-width:0.74977398;stroke-linecap:round;stroke-linejoin:round;stroke-miterlimit:10;stroke-opacity:1;stroke-dasharray:none" /><path
       d="m 175.84557,341.03908 0,4.49947"
       id="path3146"
       style="fill:none;stroke:#ca5947;stroke-width:0.74977398;stroke-linecap:round;stroke-linejoin:round;stroke-miterlimit:10;stroke-opacity:1;stroke-dasharray:none" /><path
       d="m 175.84557,350.037 0,4.49845"
       id="path3148"
       style="fill:none;stroke:#ca5947;stroke-width:0.74977398;stroke-linecap:round;stroke-linejoin:round;stroke-miterlimit:10;stroke-opacity:1;stroke-dasharray:none" /><path
       d="m 175.84557,359.0339 0,4.49845"
       id="path3150"
       style="fill:none;stroke:#ca5947;stroke-width:0.74977398;stroke-linecap:round;stroke-linejoin:round;stroke-miterlimit:10;stroke-opacity:1;stroke-dasharray:none" /><path
       d="m 175.84557,368.0318 0,4.49844"
       id="path3152"
       style="fill:none;stroke:#ca5947;stroke-width:0.74977398;stroke-linecap:round;stroke-linejoin:round;stroke-miterlimit:10;stroke-opacity:1;stroke-dasharray:none" /><path
       d="m 175.84557,377.02869 0,4.49845"
       id="path3154"
       style="fill:none;stroke:#ca5947;stroke-width:0.74977398;stroke-linecap:round;stroke-linejoin:round;stroke-miterlimit:10;stroke-opacity:1;stroke-dasharray:none" /><path
       d="m 175.84557,386.02659 0,4.49845"
       id="path3156"
       style="fill:none;stroke:#ca5947;stroke-width:0.74977398;stroke-linecap:round;stroke-linejoin:round;stroke-miterlimit:10;stroke-opacity:1;stroke-dasharray:none" /><path
       d="m 175.84557,395.02348 0,4.49845"
       id="path3158"
       style="fill:none;stroke:#ca5947;stroke-width:0.74977398;stroke-linecap:round;stroke-linejoin:round;stroke-miterlimit:10;stroke-opacity:1;stroke-dasharray:none" /><path
       d="m 175.84557,404.02041 0,4.49942"
       id="path3160"
       style="fill:none;stroke:#ca5947;stroke-width:0.74977398;stroke-linecap:round;stroke-linejoin:round;stroke-miterlimit:10;stroke-opacity:1;stroke-dasharray:none" /><path
       d="m 175.84557,413.0183 0,4.49845"
       id="path3162"
       style="fill:none;stroke:#ca5947;stroke-width:0.74977398;stroke-linecap:round;stroke-linejoin:round;stroke-miterlimit:10;stroke-opacity:1;stroke-dasharray:none" /><path
       d="m 175.84557,422.0152 0,4.49845"
       id="path3164"
       style="fill:none;stroke:#ca5947;stroke-width:0.74977398;stroke-linecap:round;stroke-linejoin:round;stroke-miterlimit:10;stroke-opacity:1;stroke-dasharray:none" /><path
       d="m 175.84557,431.01312 0,4.4984"
       id="path3166"
       style="fill:none;stroke:#ca5947;stroke-width:0.74977398;stroke-linecap:round;stroke-linejoin:round;stroke-miterlimit:10;stroke-opacity:1;stroke-dasharray:none" /><path
       d="m 175.84557,440.00997 0,4.49849"
       id="path3168"
       style="fill:none;stroke:#ca5947;stroke-width:0.74977398;stroke-linecap:round;stroke-linejoin:round;stroke-miterlimit:10;stroke-opacity:1;stroke-dasharray:none" /><path
       d="m 175.84557,449.00691 0,4.08639"
       id="path3170"
       style="fill:none;stroke:#ca5947;stroke-width:0.74977398;stroke-linecap:round;stroke-linejoin:round;stroke-miterlimit:10;stroke-opacity:1;stroke-dasharray:none" /><path
       d="m 390.54651,583.2451 c -20.03055,-1.91457 -42.65422,-20.59031 -50.29039,-29.21779 -21.94099,-25.81803 -29.4738,-44.53006 -40.9982,-76.75361 -0.15001,-0.26199 -0.29903,-0.48702 -0.44904,-0.74905 -4.0494,-6.82368 -8.24785,-15.07153 -12.59628,-24.78051 l -19.15221,-36.04498 c -5.06051,-6.11062 -16.51422,-25.1187 -27.64835,-43.56356 -16.16802,-17.56785 -31.51425,-26.26003 -62.81738,-30.27141"
       id="path3172"
       style="fill:none;stroke:#a26453;stroke-width:1.68698776;stroke-linecap:round;stroke-linejoin:round;stroke-miterlimit:10;stroke-opacity:1;stroke-dasharray:none" /><g
       transform="scale(1.000039,1.000039)"
       id="g3174"><text
         x="107.55984"
         y="-438.64462"
         transform="scale(1,-1)"
         id="text3188"
         style="font-size:12.00072002px"><tspan
           x="107.55984 110.03712 116.25831 122.4795 128.70068 131.17795 137.39914"
           y="-438.64462"
           id="tspan3190"
           style="font-size:11.2093544px;font-variant:normal;font-weight:normal;writing-mode:lr-tb;fill:#4a3f74;fill-opacity:1;fill-rule:nonzero;stroke:none;font-family:Arial Black;-inkscape-font-specification:ArialMT">leading</tspan><tspan
           x="462.92252 465.39975 471.62097 477.84216 484.06332 486.54062 492.76178"
           y="-440.8941"
           id="tspan3192"
           style="font-size:11.2093544px;font-variant:normal;font-weight:normal;writing-mode:lr-tb;fill:#4a3f74;fill-opacity:1;fill-rule:nonzero;stroke:none;font-family:Arial Black;-inkscape-font-specification:ArialMT">lagging</tspan><tspan
           x="425.39529 431.61649 437.83765 445.93082 452.15201 455.89594 459.01215 462.12833 468.34952 473.97662 477.0928 483.31403"
           y="-492.62961"
           id="tspan3194"
           style="font-size:11.2093544px;font-variant:normal;font-weight:normal;writing-mode:lr-tb;fill:#4a3f74;fill-opacity:1;fill-rule:nonzero;stroke:none;font-family:Arial Black;-inkscape-font-specification:ArialMT">power factor</tspan><tspan
           x="222.05183 232.02817 240.12131 246.3425 252.56369 258.78491 261.26218 267.48337 270.59958 273.07684 279.29803"
           y="-518.1225"
           id="tspan3196"
           style="font-size:11.2093544px;font-variant:normal;font-weight:normal;writing-mode:lr-tb;fill:#4a3f74;fill-opacity:1;fill-rule:nonzero;stroke:none;font-family:Arial Black;-inkscape-font-specification:ArialMT">%Regulation</tspan><tspan
           x="222.05183 232.02817 240.12131 246.3425 252.56369 258.78491 261.26218 267.48337 270.59958 273.07684 279.29803"
           y="-518.1225"
           id="tspan3347"
           style="font-size:11.2093544px;font-variant:normal;font-weight:normal;writing-mode:lr-tb;fill:#4a3f74;fill-opacity:1;fill-rule:nonzero;stroke:none;font-family:Arial Black;-inkscape-font-specification:ArialMT" /><tspan
           x="222.05183 232.02817 240.12131 246.3425 252.56369 258.78491 261.26218 267.48337 270.59958 273.07684 279.29803"
           y="-518.1225"
           id="tspan3349"
           style="font-size:11.2093544px;font-variant:normal;font-weight:normal;writing-mode:lr-tb;fill:#4a3f74;fill-opacity:1;fill-rule:nonzero;stroke:none;font-family:Arial Black;-inkscape-font-specification:ArialMT" /><tspan
           x="222.05183 232.02817 240.12131 246.3425 252.56369 258.78491 261.26218 267.48337 270.59958 273.07684 279.29803"
           y="-518.1225"
           id="tspan3351"
           style="font-size:11.2093544px;font-variant:normal;font-weight:normal;writing-mode:lr-tb;fill:#4a3f74;fill-opacity:1;fill-rule:nonzero;stroke:none;font-family:Arial Black;-inkscape-font-specification:ArialMT" /><tspan
           x="222.05183 232.02817 240.12131 246.3425 252.56369 258.78491 261.26218 267.48337 270.59958 273.07684 279.29803"
           y="-518.1225"
           id="tspan3353"
           style="font-size:11.2093544px;font-variant:normal;font-weight:normal;writing-mode:lr-tb;fill:#4a3f74;fill-opacity:1;fill-rule:nonzero;stroke:none;font-family:Arial Black;-inkscape-font-specification:ArialMT" /><tspan
           x="222.05183 232.02817 240.12131 246.3425 252.56369 258.78491 261.26218 267.48337 270.59958 273.07684 279.29803"
           y="-518.1225"
           id="tspan3355"
           style="font-size:11.2093544px;font-variant:normal;font-weight:normal;writing-mode:lr-tb;fill:#4a3f74;fill-opacity:1;fill-rule:nonzero;stroke:none;font-family:Arial Black;-inkscape-font-specification:ArialMT" /><tspan
           x="222.05183 232.02817 240.12131 246.3425 252.56369 258.78491 261.26218 267.48337 270.59958 273.07684 279.29803"
           y="-518.1225"
           id="tspan3357"
           style="font-size:11.2093544px;font-variant:normal;font-weight:normal;writing-mode:lr-tb;fill:#4a3f74;fill-opacity:1;fill-rule:nonzero;stroke:none;font-family:Arial Black;-inkscape-font-specification:ArialMT" /><tspan
           x="222.05183 232.02817 240.12131 246.3425 252.56369 258.78491 261.26218 267.48337 270.59958 273.07684 279.29803"
           y="-518.1225"
           id="tspan3359"
           style="font-size:11.2093544px;font-variant:normal;font-weight:normal;writing-mode:lr-tb;fill:#4a3f74;fill-opacity:1;fill-rule:nonzero;stroke:none;font-family:Arial Black;-inkscape-font-specification:ArialMT" /></text>
</g></g></svg>